<?xml version="1.0" encoding="UTF-8"?>
<svg version="1.1" xmlns="http://www.w3.org/2000/svg" width="736" height="736">
<path d="M0 0 C242.88 0 485.76 0 736 0 C736 242.88 736 485.76 736 736 C493.12 736 250.24 736 0 736 C0 493.12 0 250.24 0 0 Z " fill="#FEFEFE" transform="translate(0,0)"/>
<path d="M0 0 C1.96263099 0.00113059 3.92526366 0.00049049 5.88789368 -0.00177002 C11.1742374 -0.00290983 16.46021232 0.02047995 21.74647093 0.04852581 C27.28641571 0.07366254 32.82637051 0.07589109 38.36636353 0.08062744 C48.83847966 0.09302132 59.31042722 0.12579411 69.78246939 0.1660254 C81.71241022 0.21085516 93.64235942 0.23275826 105.57236362 0.25280714 C130.09602439 0.29453012 154.61953592 0.36481196 179.14306641 0.45410156 C179.23592521 12.16352317 179.30691206 23.87285654 179.35031509 35.58257198 C179.37115099 41.02043136 179.39939568 46.458038 179.44482422 51.89575195 C179.48842439 57.14774101 179.51223356 62.39948762 179.52257538 67.65164375 C179.52994133 69.65103532 179.5443252 71.65041428 179.56598663 73.64970207 C179.59520901 76.45970763 179.59901456 79.26872331 179.59716797 82.07885742 C179.61154907 82.89741714 179.62593018 83.71597687 179.64074707 84.55934143 C179.59786287 90.62745579 177.92683439 95.10373468 175.14306641 100.45410156 C174.62744141 101.48535156 174.11181641 102.51660156 173.58056641 103.57910156 C169.35491225 108.56320647 162.7687275 113.45254814 156.14306641 114.45410156 C154.22745386 114.52098748 152.30971048 114.53941875 150.39306641 114.51660156 C148.91580078 114.50306641 148.91580078 114.50306641 147.40869141 114.48925781 C146.66103516 114.47765625 145.91337891 114.46605469 145.14306641 114.45410156 C145.42021484 115.37191406 145.69736328 116.28972656 145.98291016 117.23535156 C149.88750438 130.46372773 149.88750438 130.46372773 150.14306641 136.45410156 C150.2378125 138.175 150.2378125 138.175 150.33447266 139.93066406 C151.0871043 159.80507485 144.46875992 180.10327387 131.03759766 194.97363281 C117.23574966 209.65057671 99.99721248 219.72821101 79.53759766 221.02832031 C67.21616196 221.40589693 54.40067762 221.08290717 43.14306641 215.45410156 C43.14767537 216.05118046 43.15228434 216.64825935 43.15703297 217.26343155 C43.26778862 231.83826319 43.35035664 246.41306985 43.40212727 260.98822403 C43.42783318 268.03690013 43.46283622 275.08529412 43.52026367 282.13378906 C43.57570599 288.94191898 43.60452781 295.74975627 43.61745262 302.55809784 C43.62665797 305.14951933 43.64463365 307.74092567 43.67171669 310.33222198 C43.70825996 313.97508236 43.71300094 317.6167501 43.71069336 321.25976562 C43.72866974 322.32000946 43.74664612 323.3802533 43.76516724 324.47262573 C43.70780393 332.8965843 41.82576722 341.16530474 36.21168995 347.70334244 C29.21751604 354.43651921 21.22586183 357.07408723 11.67602539 356.90820312 C10.32806129 356.90907928 10.32806129 356.90907928 8.9528656 356.90997314 C6.01455582 356.90721051 3.07729032 356.87620559 0.13916016 356.84472656 C-1.91063381 356.83725768 -3.96043496 356.83156781 -6.01023865 356.82757568 C-11.38123609 356.81237036 -16.75179453 356.77313271 -22.12261963 356.72875977 C-27.61277327 356.68769669 -33.10299847 356.66954116 -38.59326172 356.64941406 C-49.34801091 356.60663336 -60.10243561 356.53844419 -70.85693359 356.45410156 C-70.94855877 317.69281645 -71.01900766 278.9315477 -71.06119491 240.17017614 C-71.06619753 235.59041998 -71.07137484 231.01066404 -71.07666016 226.4309082 C-71.0777094 225.51919012 -71.07875864 224.60747203 -71.07983968 223.66812613 C-71.09722836 208.92026188 -71.12875757 194.17246022 -71.16554478 179.42463306 C-71.20299699 164.28353804 -71.22517849 149.14247572 -71.23328757 134.00133628 C-71.23876648 124.66408395 -71.25604927 115.32700857 -71.28859946 105.98981073 C-71.30980023 99.58040876 -71.31612109 93.17109781 -71.3109391 86.76166335 C-71.30838594 83.06787058 -71.31220287 79.37438624 -71.33375549 75.6806488 C-71.35701368 71.66501828 -71.34883821 67.65003674 -71.33795166 63.63435364 C-71.34960303 62.4815904 -71.36125439 61.32882716 -71.37325883 60.1411317 C-71.24570433 42.65482341 -63.84277249 27.82376645 -51.85693359 15.45410156 C-48.68700493 12.79097899 -45.42020001 10.55536332 -41.85693359 8.45410156 C-41.22529297 8.06867188 -40.59365234 7.68324219 -39.94287109 7.28613281 C-27.24287201 0.23358013 -14.08742009 -0.11470638 0 0 Z " fill="#011B38" transform="translate(335.85693359375,199.5458984375)"/>
<path d="M0 0 C0 -0.66 0 -1.32 0 -2 C1.97909398 -2.02686553 3.95828971 -2.04633375 5.9375 -2.0625 C7.03964844 -2.07410156 8.14179688 -2.08570313 9.27734375 -2.09765625 C12 -2 12 -2 13 -1 C16.32940598 -0.34164289 19.66315645 0.24441028 23.00976562 0.80664062 C26.63541679 1.44685167 29.82843636 2.07708346 33 4 C33 4.66 33 5.32 33 6 C33.7425 6.28875 34.485 6.5775 35.25 6.875 C37.56739797 7.82302644 39.77917115 8.84845911 42 10 C42 10.66 42 11.32 42 12 C42.721875 12.061875 43.44375 12.12375 44.1875 12.1875 C47.97797492 13.28252609 49.37062037 15.05759898 52 18 C52.92619141 19.00933594 52.92619141 19.00933594 53.87109375 20.0390625 C59 25.71491449 59 25.71491449 59 28 C59.66 28 60.32 28 61 28 C73.00979449 42.82317204 76.80354613 63.34277827 75 82 C71.46418465 104.89938252 59.93197274 123.17647114 41.94140625 137.421875 C23.77372527 149.61241256 1.73610551 153.29080698 -19.66796875 149.22265625 C-23.21328485 148.40684038 -26.59776527 147.29399355 -30 146 C-30.94488281 145.64164063 -31.88976562 145.28328125 -32.86328125 144.9140625 C-38.76335784 142.47328431 -38.76335784 142.47328431 -40 140 C-41.64363134 139.27840576 -43.31050386 138.60648579 -45 138 C-45 137.34 -45 136.68 -45 136 C-45.55558594 135.91234375 -46.11117187 135.8246875 -46.68359375 135.734375 C-49.68999264 134.78125023 -51.60645803 133.22076068 -54.0625 131.25 C-54.91972656 130.57453125 -55.77695312 129.8990625 -56.66015625 129.203125 C-59.0451246 126.95751207 -60.43658886 124.85840531 -62 122 C-62.556875 121.278125 -63.11375 120.55625 -63.6875 119.8125 C-65 118 -65 118 -65 116 C-65.66 116 -66.32 116 -67 116 C-67 115.34 -67 114.68 -67 114 C-67.66 114 -68.32 114 -69 114 C-73.46353473 106.08354218 -76.06835235 99.05947026 -77 90 C-77.66 90 -78.32 90 -79 90 C-79.62687854 63.49750399 -79.62687854 63.49750399 -76 54 C-75.67515625 53.14148438 -75.3503125 52.28296875 -75.015625 51.3984375 C-72.63077602 45.61976496 -72.63077602 45.61976496 -70.43359375 43.4609375 C-68.69103495 41.91871615 -68.69103495 41.91871615 -68.0625 38.6875 C-66.21162491 32.26387467 -62.04206327 27.71282535 -57.5625 22.9375 C-56.86543945 22.18243164 -56.86543945 22.18243164 -56.15429688 21.41210938 C-47.25870668 11.82174505 -47.25870668 11.82174505 -42 9 C-40.96875 8.443125 -39.9375 7.88625 -38.875 7.3125 C-36 6 -36 6 -33 6 C-32.54625 5.54625 -32.0925 5.0925 -31.625 4.625 C-27.32190053 0.32190053 -18.94607548 -1 -13 -1 C-13 -0.34 -13 0.32 -13 1 C-12.34 1 -11.68 1 -11 1 C-10.67 0.34 -10.34 -0.32 -10 -1 C-6.00820257 -2.33059914 -3.73682109 -1.81502739 0 0 Z " fill="#FE226D" transform="translate(411,270)"/>
<path d="M0 0 C0 -0.66 0 -1.32 0 -2 C1.97909398 -2.02686553 3.95828971 -2.04633375 5.9375 -2.0625 C7.03964844 -2.07410156 8.14179688 -2.08570313 9.27734375 -2.09765625 C12 -2 12 -2 13 -1 C16.32940598 -0.34164289 19.66315645 0.24441028 23.00976562 0.80664062 C26.63541679 1.44685167 29.82843636 2.07708346 33 4 C33 4.66 33 5.32 33 6 C33.7425 6.28875 34.485 6.5775 35.25 6.875 C37.56739797 7.82302644 39.77917115 8.84845911 42 10 C42 10.66 42 11.32 42 12 C42.721875 12.061875 43.44375 12.12375 44.1875 12.1875 C47.97797492 13.28252609 49.37062037 15.05759898 52 18 C52.92619141 19.00933594 52.92619141 19.00933594 53.87109375 20.0390625 C59 25.71491449 59 25.71491449 59 28 C59.66 28 60.32 28 61 28 C62.69140625 30.23046875 62.69140625 30.23046875 64.5625 33.1875 C65.18253906 34.15042969 65.80257812 35.11335938 66.44140625 36.10546875 C67.92715794 38.86472188 68.47080939 40.95161817 69 44 C68.04501617 44.00586624 67.09003235 44.01173248 66.10610962 44.01777649 C57.07335031 44.07517548 48.04082779 44.14802576 39.00831032 44.23571491 C34.36542141 44.28030006 29.72261785 44.31958183 25.07958984 44.34643555 C20.59253739 44.37258742 16.1058155 44.41307247 11.61896896 44.46318626 C9.91354889 44.47977504 8.20807175 44.49133878 6.50258255 44.49761391 C-2.34365793 44.53343314 -10.67428899 44.57894884 -19 48 C-19 48.66 -19 49.32 -19 50 C-20.390625 51.2265625 -20.390625 51.2265625 -22.25 52.625 C-27.18402094 56.70006183 -29.72342105 61.77396253 -31 68 C-31.10472739 70.0814223 -31.15577381 72.16577663 -31.17358398 74.24975586 C-31.18707382 75.5146434 -31.20056366 76.77953094 -31.21446228 78.08274841 C-31.21952223 78.75591032 -31.22458218 79.42907223 -31.22979546 80.12263298 C-31.24626887 82.23732398 -31.26950826 84.35184178 -31.29469299 86.46644592 C-31.36529892 92.47713529 -31.42556789 98.4878941 -31.47680664 104.4987793 C-31.50865904 108.17988168 -31.549946 111.86078155 -31.59700203 115.54171944 C-31.61297944 116.9414664 -31.62532062 118.3412599 -31.63390923 119.7410717 C-31.64611041 121.7010726 -31.67129977 123.66097952 -31.69702148 125.62084961 C-31.70732895 126.73463486 -31.71763641 127.8484201 -31.72825623 128.99595642 C-32.0063608 132.07031664 -32.60073122 134.25726145 -34 137 C-36.125 138.3125 -36.125 138.3125 -38 139 C-37.195625 139.268125 -36.39125 139.53625 -35.5625 139.8125 C-34.716875 140.204375 -33.87125 140.59625 -33 141 C-32.67 141.99 -32.34 142.98 -32 144 C-35.83551785 143.48168678 -37.36601932 142.74372987 -40 140 C-42.59915538 138.80972016 -42.59915538 138.80972016 -45 138 C-45 137.34 -45 136.68 -45 136 C-45.55558594 135.91234375 -46.11117187 135.8246875 -46.68359375 135.734375 C-49.68999264 134.78125023 -51.60645803 133.22076068 -54.0625 131.25 C-54.91972656 130.57453125 -55.77695312 129.8990625 -56.66015625 129.203125 C-59.0451246 126.95751207 -60.43658886 124.85840531 -62 122 C-62.556875 121.278125 -63.11375 120.55625 -63.6875 119.8125 C-65 118 -65 118 -65 116 C-65.66 116 -66.32 116 -67 116 C-67 115.34 -67 114.68 -67 114 C-67.66 114 -68.32 114 -69 114 C-73.46353473 106.08354218 -76.06835235 99.05947026 -77 90 C-77.66 90 -78.32 90 -79 90 C-79.62687854 63.49750399 -79.62687854 63.49750399 -76 54 C-75.67515625 53.14148438 -75.3503125 52.28296875 -75.015625 51.3984375 C-72.63077602 45.61976496 -72.63077602 45.61976496 -70.43359375 43.4609375 C-68.69103495 41.91871615 -68.69103495 41.91871615 -68.0625 38.6875 C-66.21162491 32.26387467 -62.04206327 27.71282535 -57.5625 22.9375 C-56.86543945 22.18243164 -56.86543945 22.18243164 -56.15429688 21.41210938 C-47.25870668 11.82174505 -47.25870668 11.82174505 -42 9 C-40.96875 8.443125 -39.9375 7.88625 -38.875 7.3125 C-36 6 -36 6 -33 6 C-32.54625 5.54625 -32.0925 5.0925 -31.625 4.625 C-27.32190053 0.32190053 -18.94607548 -1 -13 -1 C-13 -0.34 -13 0.32 -13 1 C-12.34 1 -11.68 1 -11 1 C-10.67 0.34 -10.34 -0.32 -10 -1 C-6.00820257 -2.33059914 -3.73682109 -1.81502739 0 0 Z " fill="#8D0C49" transform="translate(411,270)"/>
<path d="M0 0 C1.75690055 0.00747311 3.51380952 0.01316098 5.27072144 0.01715088 C9.86413138 0.03232315 14.45702432 0.07153093 19.05023193 0.1159668 C23.74956268 0.15710236 28.44897808 0.1752007 33.1484375 0.1953125 C42.3465796 0.2380346 51.54434033 0.30618223 60.7421875 0.390625 C61.39528166 2.64263495 62.04583948 4.89538056 62.6953125 7.1484375 C63.05786133 8.40285645 63.42041016 9.65727539 63.79394531 10.94970703 C65.60796186 17.53228922 65.84083048 23.72725474 65.9296875 30.515625 C65.94950684 31.53825439 65.94950684 31.53825439 65.96972656 32.58154297 C65.9760407 36.90146657 65.32403792 40.3766014 63.7421875 44.390625 C63.4121875 44.390625 63.0821875 44.390625 62.7421875 44.390625 C62.75266113 43.76494629 62.76313477 43.13926758 62.77392578 42.49462891 C62.81541941 39.6683349 62.84149223 36.84210489 62.8671875 34.015625 C62.89232422 32.53835938 62.89232422 32.53835938 62.91796875 31.03125 C62.92441406 30.09023438 62.93085938 29.14921875 62.9375 28.1796875 C62.94797363 27.31037598 62.95844727 26.44106445 62.96923828 25.54541016 C62.94813859 23.17716561 62.94813859 23.17716561 60.7421875 21.390625 C60.9071875 20.58625 61.0721875 19.781875 61.2421875 18.953125 C62.09864174 16.16287882 62.09864174 16.16287882 59.7421875 13.390625 C59.4811087 10.36733244 59.65403569 7.43186258 59.7421875 4.390625 C56.7721875 5.050625 53.8021875 5.710625 50.7421875 6.390625 C50.2471875 4.905625 50.2471875 4.905625 49.7421875 3.390625 C50.4021875 3.060625 51.0621875 2.730625 51.7421875 2.390625 C35.2421875 2.390625 18.7421875 2.390625 1.7421875 2.390625 C1.7421875 3.050625 1.7421875 3.710625 1.7421875 4.390625 C-1.5578125 4.390625 -4.8578125 4.390625 -8.2578125 4.390625 C-8.2578125 3.730625 -8.2578125 3.070625 -8.2578125 2.390625 C-9.2478125 2.390625 -10.2378125 2.390625 -11.2578125 2.390625 C-11.5878125 3.050625 -11.9178125 3.710625 -12.2578125 4.390625 C-12.2578125 3.730625 -12.2578125 3.070625 -12.2578125 2.390625 C-13.1034375 2.885625 -13.9490625 3.380625 -14.8203125 3.890625 C-18.2578125 5.390625 -18.2578125 5.390625 -21.8828125 5.265625 C-25.39960646 5.03482188 -25.39960646 5.03482188 -27.7578125 7.640625 C-29.49955977 10.21189464 -29.49955977 10.21189464 -29.0078125 12.703125 C-28.7603125 13.26 -28.5128125 13.816875 -28.2578125 14.390625 C-30.8978125 14.390625 -33.5378125 14.390625 -36.2578125 14.390625 C-34.81704204 11.02882726 -33.01031229 8.79906232 -30.2578125 6.390625 C-29.5978125 6.390625 -28.9378125 6.390625 -28.2578125 6.390625 C-28.2578125 5.730625 -28.2578125 5.070625 -28.2578125 4.390625 C-19.24440872 -0.63190904 -9.97791179 -0.12538314 0 0 Z " fill="#EF2A6F" transform="translate(420.2578125,313.609375)"/>
<path d="M0 0 C0.99 0.99 0.99 0.99 2 2 C0.33388095 2.042721 -1.33382885 2.04063832 -3 2 C-3.495 1.505 -3.495 1.505 -4 1 C-6.01594582 0.76572222 -8.038474 0.58663876 -10.0625 0.4375 C-11.16722656 0.35371094 -12.27195312 0.26992188 -13.41015625 0.18359375 C-14.26480469 0.12300781 -15.11945313 0.06242187 -16 0 C-16 0.66 -16 1.32 -16 2 C-16.99 1.690625 -16.99 1.690625 -18 1.375 C-22.09630108 0.86296237 -25.04235979 1.85966299 -29 3 C-29 2.34 -29 1.68 -29 1 C-39.72124374 3.34797237 -39.72124374 3.34797237 -49.1875 8.6875 C-51 10 -51 10 -54 10 C-56.41556677 11.26509754 -56.41556677 11.26509754 -59 13 C-59.886875 13.515625 -60.77375 14.03125 -61.6875 14.5625 C-70.74999529 20.64329347 -79.12616157 30.25232314 -84 40 C-84.103125 40.763125 -84.20625 41.52625 -84.3125 42.3125 C-85 45 -85 45 -86.9375 47.375 C-89.44223676 50.56284678 -90.04649327 53.05883887 -91 57 C-91.53718985 58.98038646 -92.0790826 60.9595016 -92.625 62.9375 C-93.0837511 64.62488648 -93.5422281 66.31234761 -94 68 C-94.33 68 -94.66 68 -95 68 C-95.20674944 62.21101581 -94.59162079 57.57067277 -93 52 C-92.34 52 -91.68 52 -91 52 C-91.103125 51.21625 -91.20625 50.4325 -91.3125 49.625 C-90.86953931 44.48665605 -88.70726324 40.35623267 -86 36 C-85.01 35.505 -85.01 35.505 -84 35 C-83.18164987 33.61024048 -82.41827248 32.1877413 -81.6875 30.75 C-79.04608197 25.85675361 -76.46606626 21.82202209 -71 20 C-69.79117904 17.99983534 -69.79117904 17.99983534 -69 16 C-68.34 16 -67.68 16 -67 16 C-67 15.34 -67 14.68 -67 14 C-61.25 11 -61.25 11 -59 11 C-59 10.01 -59 9.02 -59 8 C-58.41734375 7.84144531 -57.8346875 7.68289063 -57.234375 7.51953125 C-52.32407877 6.12210418 -47.6790768 4.48611135 -43 2.4375 C-29.89386084 -3.08437589 -13.74507588 -4.2657132 0 0 Z " fill="#341740" transform="translate(427,268)"/>
<path d="M0 0 C0.33 0 0.66 0 1 0 C0.21663328 15.66733439 -8.25577646 28.54749132 -19 39.4375 C-19.58128662 40.02901855 -20.16257324 40.62053711 -20.76147461 41.22998047 C-29.71121796 50 -29.71121796 50 -35 50 C-35.33 48.35 -35.66 46.7 -36 45 C-35.01 45 -34.02 45 -33 45 C-33 44.01 -33 43.02 -33 42 C-29.535 41.505 -29.535 41.505 -26 41 C-26 39.02 -26 37.04 -26 35 C-25.01 35.66 -24.02 36.32 -23 37 C-22.34 36.01 -21.68 35.02 -21 34 C-18.875 33.3125 -18.875 33.3125 -17 33 C-17.20625 32.4225 -17.4125 31.845 -17.625 31.25 C-18 29 -18 29 -17.4375 26.8125 C-16 25 -16 25 -12.875 24.25 C-11.451875 24.12625 -11.451875 24.12625 -10 24 C-9.896875 22.96875 -9.79375 21.9375 -9.6875 20.875 C-9.00872203 17.04916055 -7.88841205 14.36629975 -6 11 C-5.34 11.33 -4.68 11.66 -4 12 C-2.68 8.04 -1.36 4.08 0 0 Z " fill="#EA115A" transform="translate(482,359)"/>
<path d="M0 0 C0.8971875 0.99 0.8971875 0.99 1.8125 2 C3.87501834 4.3373846 3.87501834 4.3373846 7 4 C7.45375 5.134375 7.9075 6.26875 8.375 7.4375 C9.57095806 11.04721692 9.57095806 11.04721692 12 12 C12.309375 12.66 12.61875 13.32 12.9375 14 C13.8891846 16.34608221 13.8891846 16.34608221 17 17 C17.6875 19.0625 17.6875 19.0625 18 21 C19.32 21 20.64 21 22 21 C22.12375 21.639375 22.2475 22.27875 22.375 22.9375 C22.58125 23.618125 22.7875 24.29875 23 25 C23.66 25.33 24.32 25.66 25 26 C25 26.66 25 27.32 25 28 C25.66 28.33 26.32 28.66 27 29 C25.35 28.67 23.7 28.34 22 28 C22 27.34 22 26.68 22 26 C21.44441406 25.91234375 20.88882812 25.8246875 20.31640625 25.734375 C17.31000736 24.78125023 15.39354197 23.22076068 12.9375 21.25 C12.08027344 20.57453125 11.22304688 19.8990625 10.33984375 19.203125 C7.9548754 16.95751207 6.56341114 14.85840531 5 12 C4.443125 11.278125 3.88625 10.55625 3.3125 9.8125 C2 8 2 8 2 6 C1.34 6 0.68 6 0 6 C0 4.02 0 2.04 0 0 Z " fill="#951252" transform="translate(344,380)"/>
<path d="M0 0 C0.66 0.66 1.32 1.32 2 2 C0.33388095 2.042721 -1.33382885 2.04063832 -3 2 C-3.495 1.505 -3.495 1.505 -4 1 C-6.01594582 0.76572222 -8.038474 0.58663876 -10.0625 0.4375 C-11.16722656 0.35371094 -12.27195312 0.26992188 -13.41015625 0.18359375 C-14.26480469 0.12300781 -15.11945313 0.06242187 -16 0 C-16 0.66 -16 1.32 -16 2 C-16.66 1.79375 -17.32 1.5875 -18 1.375 C-22.09630108 0.86296237 -25.04235979 1.85966299 -29 3 C-29 2.34 -29 1.68 -29 1 C-39.72124374 3.34797237 -39.72124374 3.34797237 -49.1875 8.6875 C-51 10 -51 10 -54 10 C-54.99 9.67 -55.98 9.34 -57 9 C-39.54628393 -0.70862956 -19.85530411 -6.16199093 0 0 Z " fill="#4F1444" transform="translate(427,268)"/>
<path d="M0 0 C1.21914597 0.00636726 1.21914597 0.00636726 2.46292114 0.01286316 C5.04073209 0.02956071 7.6177407 0.06719513 10.1953125 0.10546875 C11.95050949 0.12052717 13.70571881 0.13421355 15.4609375 0.14648438 C19.74770163 0.17943483 24.03387136 0.23115422 28.3203125 0.29296875 C28.3203125 0.62296875 28.3203125 0.95296875 28.3203125 1.29296875 C24.0303125 1.29296875 19.7403125 1.29296875 15.3203125 1.29296875 C15.3203125 1.95296875 15.3203125 2.61296875 15.3203125 3.29296875 C12.0203125 3.29296875 8.7203125 3.29296875 5.3203125 3.29296875 C5.3203125 2.63296875 5.3203125 1.97296875 5.3203125 1.29296875 C4.3303125 1.29296875 3.3403125 1.29296875 2.3203125 1.29296875 C1.9903125 1.95296875 1.6603125 2.61296875 1.3203125 3.29296875 C1.3203125 2.63296875 1.3203125 1.97296875 1.3203125 1.29296875 C0.4746875 1.78796875 -0.3709375 2.28296875 -1.2421875 2.79296875 C-4.6796875 4.29296875 -4.6796875 4.29296875 -8.3046875 4.16796875 C-11.82148146 3.93716563 -11.82148146 3.93716563 -14.1796875 6.54296875 C-15.92143477 9.11423839 -15.92143477 9.11423839 -15.4296875 11.60546875 C-15.1821875 12.16234375 -14.9346875 12.71921875 -14.6796875 13.29296875 C-17.3196875 13.29296875 -19.9596875 13.29296875 -22.6796875 13.29296875 C-21.23891704 9.93117101 -19.43218729 7.70140607 -16.6796875 5.29296875 C-16.0196875 5.29296875 -15.3596875 5.29296875 -14.6796875 5.29296875 C-14.6796875 4.63296875 -14.6796875 3.97296875 -14.6796875 3.29296875 C-9.5821162 0.21953738 -5.75967966 -0.11457656 0 0 Z " fill="#F6639B" transform="translate(406.6796875,314.70703125)"/>
<path d="M0 0 C0.33 0 0.66 0 1 0 C1 24.75 1 49.5 1 75 C0.34 75 -0.32 75 -1 75 C-1.33 74.34 -1.66 73.68 -2 73 C-3.64363134 72.27840576 -5.31050386 71.60648579 -7 71 C-6.38125 70.401875 -5.7625 69.80375 -5.125 69.1875 C-1.35857289 65.31029562 -0.74354325 63.07725258 -0.68115234 57.78442383 C-0.66128265 56.5033223 -0.64141296 55.22222076 -0.62094116 53.90229797 C-0.60906473 52.50387749 -0.59740188 51.10545517 -0.5859375 49.70703125 C-0.56722739 48.27641174 -0.54765409 46.84580329 -0.5272522 45.41520691 C-0.47590817 41.65221673 -0.43629479 37.88919077 -0.39910889 34.1260376 C-0.35908336 30.28510672 -0.30798443 26.444325 -0.2578125 22.60351562 C-0.16102639 15.06911272 -0.07663039 7.53463771 0 0 Z " fill="#E3276C" transform="translate(379,338)"/>
<path d="M0 0 C0.95598496 3.11051822 1.00464846 5.5281185 0.625 8.75 C0.52574219 9.61882812 0.42648437 10.48765625 0.32421875 11.3828125 C0.21722656 12.24648438 0.11023438 13.11015625 0 14 C-0.09667969 14.80179687 -0.19335938 15.60359375 -0.29296875 16.4296875 C-0.52105168 18.28740647 -0.75938952 20.14386202 -1 22 C-0.34 22 0.32 22 1 22 C1 25.3 1 28.6 1 32 C1.66 32 2.32 32 3 32 C3.12375 32.94875 3.2475 33.8975 3.375 34.875 C3.71687177 38.08667191 3.71687177 38.08667191 6 40 C5.625 43.125 5.625 43.125 5 46 C2.09707248 42.72327085 1.41970936 40.04717391 0.8125 35.75 C0.65394531 34.67234375 0.49539063 33.5946875 0.33203125 32.484375 C0.22246094 31.66453125 0.11289062 30.8446875 0 30 C-0.66 30 -1.32 30 -2 30 C-2.05834395 26.12506384 -2.09371201 22.25024164 -2.125 18.375 C-2.14175781 17.28058594 -2.15851563 16.18617188 -2.17578125 15.05859375 C-2.23662606 5.01920021 -2.23662606 5.01920021 0 0 Z " fill="#671348" transform="translate(334,330)"/>
<path d="M0 0 C2.09434213 0.37321217 2.09434213 0.37321217 4.1875 0.5 C6.0746875 0.7475 6.0746875 0.7475 8 1 C8.33 1.66 8.66 2.32 9 3 C10.88263881 3.90343684 10.88263881 3.90343684 13.0625 4.625 C13.79597656 4.88539063 14.52945312 5.14578125 15.28515625 5.4140625 C16.13400391 5.70410156 16.13400391 5.70410156 17 6 C17 6.66 17 7.32 17 8 C19.97 8.495 19.97 8.495 23 9 C23.495 10.98 23.495 10.98 24 13 C20.9168649 11.80100302 17.93720508 10.52299523 15 9 C15 8.34 15 7.68 15 7 C14.2265625 6.81824219 13.453125 6.63648438 12.65625 6.44921875 C3.11120799 4.14565044 3.11120799 4.14565044 -1.25 2.375 C-5.31073074 0.88606539 -8.71459712 0.38262526 -13 0 C-13 -0.33 -13 -0.66 -13 -1 C-11.58566794 -1.2236337 -10.16832382 -1.42826476 -8.75 -1.625 C-7.56664062 -1.79902344 -7.56664062 -1.79902344 -6.359375 -1.9765625 C-3.63242256 -2.00365143 -2.37183784 -1.27315351 0 0 Z " fill="#231037" transform="translate(429,267)"/>
<path d="M0 0 C1.828125 0.22265625 1.828125 0.22265625 4 1 C5.484375 2.99609375 5.484375 2.99609375 6.75 5.4375 C7.39195312 6.64212891 7.39195312 6.64212891 8.046875 7.87109375 C9 10 9 10 9 12 C6.69 12 4.38 12 2 12 C2.66 9.69 3.32 7.38 4 5 C3.01 5 2.02 5 1 5 C0.67 3.35 0.34 1.7 0 0 Z " fill="#C70754" transform="translate(471,302)"/>
<path d="M0 0 C0 0.66 0 1.32 0 2 C-0.88042969 2.24234375 -1.76085937 2.4846875 -2.66796875 2.734375 C-3.82941406 3.06953125 -4.99085938 3.4046875 -6.1875 3.75 C-7.33605469 4.07484375 -8.48460937 4.3996875 -9.66796875 4.734375 C-13.09407281 6.03573223 -15.19564394 7.69451903 -18 10 C-21 10 -21 10 -24 9 C-21.7941576 7.86988348 -19.58554973 6.74584212 -17.375 5.625 C-16.75753906 5.30789063 -16.14007813 4.99078125 -15.50390625 4.6640625 C-10.37468579 2.07245637 -5.85305899 0 0 0 Z " fill="#3F1843" transform="translate(394,268)"/>
<path d="M0 0 C6.6 0 13.2 0 20 0 C17 3 17 3 15.00708008 3.34057617 C14.26868896 3.32486572 13.53029785 3.30915527 12.76953125 3.29296875 C11.96708984 3.28330078 11.16464844 3.27363281 10.33789062 3.26367188 C9.50451172 3.23853516 8.67113281 3.21339844 7.8125 3.1875 C6.96751953 3.17396484 6.12253906 3.16042969 5.25195312 3.14648438 C3.16769616 3.11115799 1.08376723 3.05735139 -1 3 C-0.67 2.01 -0.34 1.02 0 0 Z " fill="#EF1761" transform="translate(405,417)"/>
<path d="M0 0 C8.58 0 17.16 0 26 0 C26 0.33 26 0.66 26 1 C21.71 1 17.42 1 13 1 C13 1.66 13 2.32 13 3 C9.7 3 6.4 3 3 3 C3 2.34 3 1.68 3 1 C2.01 0.67 1.02 0.34 0 0 Z " fill="#FD5291" transform="translate(409,315)"/>
<path d="M0 0 C1.65 0 3.3 0 5 0 C5.33 0.66 5.66 1.32 6 2 C3 4 3 4 -1 4 C-1.33 4.99 -1.66 5.98 -2 7 C-6.455 7.495 -6.455 7.495 -11 8 C-9 6 -9 6 -5.875 5.875 C-4.92625 5.91625 -3.9775 5.9575 -3 6 C-2.690625 5.38125 -2.38125 4.7625 -2.0625 4.125 C-1.375 2.75 -0.6875 1.375 0 0 Z " fill="#EF0A57" transform="translate(437,409)"/>
<path d="M0 0 C0.99 0.33 1.98 0.66 3 1 C-1.0480028 4.70068895 -4.827419 7.95502612 -10 10 C-10.66 9.67 -11.32 9.34 -12 9 C-10.625 7.5 -10.625 7.5 -9 6 C-8.34 6 -7.68 6 -7 6 C-6.67 5.34 -6.34 4.68 -6 4 C-3.4375 3.375 -3.4375 3.375 -1 3 C-0.67 2.01 -0.34 1.02 0 0 Z " fill="#1B2C43" transform="translate(370,545)"/>
<path d="M0 0 C0.94875 0.165 1.8975 0.33 2.875 0.5 C7.5763877 1.18541792 12.26003286 1.08583441 17 1 C17.33 1.99 17.66 2.98 18 4 C11.28299653 4.31985731 6.24273068 3.4793824 0 1 C0 0.67 0 0.34 0 0 Z " fill="#E72869" transform="translate(383,415)"/>
<path d="M0 0 C0.33 0 0.66 0 1 0 C1.33 3.63 1.66 7.26 2 11 C1.34 11 0.68 11 0 11 C-0.33 10.34 -0.66 9.68 -1 9 C-2.64363134 8.27840576 -4.31050386 7.60648579 -6 7 C-5.071875 6.1028125 -5.071875 6.1028125 -4.125 5.1875 C-1.86323046 2.99188856 -1.86323046 2.99188856 0 0 Z " fill="#DE0452" transform="translate(378,402)"/>
<path d="M0 0 C1.98 1.65 3.96 3.3 6 5 C5.01 5.495 5.01 5.495 4 6 C4.7425 7.1446875 4.7425 7.1446875 5.5 8.3125 C7 11 7 11 7 14 C2 8.25 2 8.25 2 6 C1.34 6 0.68 6 0 6 C0 4.02 0 2.04 0 0 Z " fill="#A20D51" transform="translate(344,380)"/>
<path d="M0 0 C0.66 0 1.32 0 2 0 C2.33 1.32 2.66 2.64 3 4 C1.02 4.99 1.02 4.99 -1 6 C-1 6.66 -1 7.32 -1 8 C-1.99 8 -2.98 8 -4 8 C-4.33 9.65 -4.66 11.3 -5 13 C-5.66 13 -6.32 13 -7 13 C-5.65846062 7.99971686 -3.51629997 3.80932497 0 0 Z " fill="#1E2E3F" transform="translate(277,223)"/>
<path d="M0 0 C0.2475 0.5775 0.495 1.155 0.75 1.75 C1.93990475 4.13449889 1.93990475 4.13449889 4.125 6.125 C6 8 6 8 6 10 C4.68 10 3.36 10 2 10 C-2 5.88888889 -2 5.88888889 -2 2 C-1.34 2 -0.68 2 0 2 C0 1.34 0 0.68 0 0 Z " fill="#BA054E" transform="translate(350,384)"/>
<path d="M0 0 C1.32 0 2.64 0 4 0 C4.12375 0.639375 4.2475 1.27875 4.375 1.9375 C4.684375 2.9584375 4.684375 2.9584375 5 4 C5.66 4.33 6.32 4.66 7 5 C7 5.66 7 6.32 7 7 C7.66 7.33 8.32 7.66 9 8 C7.35 7.67 5.7 7.34 4 7 C4 6.34 4 5.68 4 5 C2.68 4.67 1.36 4.34 0 4 C0 2.68 0 1.36 0 0 Z " fill="#C40855" transform="translate(362,401)"/>
<path d="M0 0 C3.96 1.98 3.96 1.98 8 4 C8 4.66 8 5.32 8 6 C9.98 6.66 11.96 7.32 14 8 C13.01 8.495 13.01 8.495 12 9 C9.375 8.0625 9.375 8.0625 7 7 C7 6.34 7 5.68 7 5 C5.02 5 3.04 5 1 5 C0.67 3.35 0.34 1.7 0 0 Z " fill="#420F39" transform="translate(358,402)"/>
<path d="M0 0 C0.75 1.75 0.75 1.75 1 4 C-1.05226666 6.76266666 -2.41531259 7.8405398 -5.75 8.75 C-6.86375 8.87375 -6.86375 8.87375 -8 9 C-7.04270084 7.87411986 -6.08412105 6.7493285 -5.125 5.625 C-4.59132813 4.99851562 -4.05765625 4.37203125 -3.5078125 3.7265625 C-2.38567993 2.44163349 -1.20628025 1.20628025 0 0 Z " fill="#FCC7E0" transform="translate(465,395)"/>
<path d="M0 0 C2.66353755 0.51520982 5.29499131 0.72949913 8 1 C8 1.33 8 1.66 8 2 C0.75002578 2.28307925 -5.90961228 1.50974035 -13 0 C-13 -0.33 -13 -0.66 -13 -1 C-11.58566794 -1.2236337 -10.16832382 -1.42826476 -8.75 -1.625 C-7.56664062 -1.79902344 -7.56664062 -1.79902344 -6.359375 -1.9765625 C-3.63023903 -2.00367312 -2.37163436 -1.27992966 0 0 Z " fill="#161233" transform="translate(429,267)"/>
<path d="M0 0 C4.62 0.99 9.24 1.98 14 3 C14 3.33 14 3.66 14 4 C9.545 4.495 9.545 4.495 5 5 C4.67 4.34 4.34 3.68 4 3 C1.98330173 1.86649466 1.98330173 1.86649466 0 1 C0 0.67 0 0.34 0 0 Z " fill="#FEDAED" transform="translate(382,416)"/>
<path d="M0 0 C0.33 0 0.66 0 1 0 C1.4375 2.125 1.4375 2.125 1 5 C-1.12689146 7.276147 -3.5023433 9.1458722 -6 11 C-6.66 10.67 -7.32 10.34 -8 10 C-6.69118353 8.33043913 -5.37785174 6.66441696 -4.0625 5 C-2.96615234 3.6078125 -2.96615234 3.6078125 -1.84765625 2.1875 C-1.23792969 1.465625 -0.62820313 0.74375 0 0 Z " fill="#FED2E9" transform="translate(474,384)"/>
<path d="M0 0 C2.40034102 3.60051153 4.32187705 6.96144535 3.625 11.375 C3.41875 11.91125 3.2125 12.4475 3 13 C2.34 13 1.68 13 1 13 C0.67 8.71 0.34 4.42 0 0 Z " fill="#E7447C" transform="translate(480,314)"/>
<path d="M0 0 C0.33 0.66 0.66 1.32 1 2 C0.525625 2.350625 0.05125 2.70125 -0.4375 3.0625 C-2.67873825 5.84163543 -2.67117658 8.5144717 -3 12 C-3.99 11.34 -4.98 10.68 -6 10 C-5.67 9.01 -5.34 8.02 -5 7 C-5.66 6.67 -6.32 6.34 -7 6 C-4.69 4.02 -2.38 2.04 0 0 Z " fill="#1B2D44" transform="translate(289,211)"/>
<path d="M0 0 C1.32 0.66 2.64 1.32 4 2 C1.6875 4.5 1.6875 4.5 -1 7 C-1.99 7 -2.98 7 -4 7 C-2.79618552 4.50638429 -1.54571278 2.31856917 0 0 Z " fill="#9D124D" transform="translate(388,317)"/>
<path d="M0 0 C0.66 0 1.32 0 2 0 C1.45773019 3.79588866 -0.20127563 5.47211993 -3 8 C-3.66 7.67 -4.32 7.34 -5 7 C-5 5.02 -5 3.04 -5 1 C-3.515 1.99 -3.515 1.99 -2 3 C-1.34 2.01 -0.68 1.02 0 0 Z " fill="#F80457" transform="translate(461,393)"/>
<path d="M0 0 C1.32 0.33 2.64 0.66 4 1 C3.67 1.99 3.34 2.98 3 4 C0.93359375 4.94921875 0.93359375 4.94921875 -1.5625 5.6875 C-2.38878906 5.93886719 -3.21507812 6.19023437 -4.06640625 6.44921875 C-4.70449219 6.63097656 -5.34257812 6.81273437 -6 7 C-6 6.34 -6 5.68 -6 5 C-5.195625 4.731875 -4.39125 4.46375 -3.5625 4.1875 C-2.716875 3.795625 -1.87125 3.40375 -1 3 C-0.67 2.01 -0.34 1.02 0 0 Z " fill="#E12363" transform="translate(442,408)"/>
<path d="M0 0 C1.875 0.1875 1.875 0.1875 4 1 C5.25 3.5625 5.25 3.5625 6 6 C4.35 5.67 2.7 5.34 1 5 C0.67 3.35 0.34 1.7 0 0 Z " fill="#B90A51" transform="translate(471,302)"/>
<path d="M0 0 C1.98 0.495 1.98 0.495 4 1 C4 1.99 4 2.98 4 4 C3.01 4.495 3.01 4.495 2 5 C1.34786708 7.02463255 1.34786708 7.02463255 1 9 C-1.09230769 4.56923077 -1.09230769 4.56923077 -0.625 1.6875 C-0.41875 1.130625 -0.2125 0.57375 0 0 Z " fill="#FA0356" transform="translate(465,384)"/>
<path d="M0 0 C3.4375 0.8125 3.4375 0.8125 7 2 C7.33 2.99 7.66 3.98 8 5 C4.33776842 4.50510384 2.33006074 3.94323463 0 1 C0 0.67 0 0.34 0 0 Z " fill="#AF0C54" transform="translate(371,409)"/>
<path d="M0 0 C0.98726527 2.66561622 1.0275526 3.90126985 0.25 6.6875 C-1 9 -1 9 -4 10 C-2.8905928 6.51329166 -1.73662334 3.22515763 0 0 Z " fill="#FFD5EB" transform="translate(479,374)"/>
<path d="M0 0 C-0.33 0.99 -0.66 1.98 -1 3 C-1 2.34 -1 1.68 -1 1 C-1.928125 1.515625 -2.85625 2.03125 -3.8125 2.5625 C-7 4 -7 4 -10 3 C-7.29536552 -0.8183075 -4.37912428 -0.24787496 0 0 Z " fill="#FC619B" transform="translate(409,315)"/>
<path d="M0 0 C2.5 2.3125 2.5 2.3125 5 5 C5 5.99 5 6.98 5 8 C3.35 7.67 1.7 7.34 0 7 C0 4.66666667 0 2.33333333 0 0 Z " fill="#35133A" transform="translate(346,388)"/>
<path d="M0 0 C0.66 0 1.32 0 2 0 C1.6875 2.875 1.6875 2.875 1 6 C0.01 6.66 -0.98 7.32 -2 8 C-2.33 6.35 -2.66 4.7 -3 3 C-2.01 3 -1.02 3 0 3 C0 2.01 0 1.02 0 0 Z " fill="#EE115B" transform="translate(469,385)"/>
<path d="M0 0 C2.64 0.33 5.28 0.66 8 1 C8.33 2.32 8.66 3.64 9 5 C5.54074837 3.7508258 2.85306797 2.32472205 0 0 Z " fill="#301239" transform="translate(444,275)"/>
<path d="M0 0 C-1.45381897 0.69699552 -2.91322953 1.38233866 -4.375 2.0625 C-5.18710937 2.44535156 -5.99921875 2.82820313 -6.8359375 3.22265625 C-7.55007813 3.47917969 -8.26421875 3.73570312 -9 4 C-9.66 3.67 -10.32 3.34 -11 3 C-7.83370093 -0.83288835 -4.68080329 -1.56026776 0 0 Z " fill="#1A1538" transform="translate(384,271)"/>
<path d="M0 0 C0.66 0 1.32 0 2 0 C1.40138258 2.35171131 0.73075648 4.6859378 0 7 C-0.99 7.495 -0.99 7.495 -2 8 C-2.33 6.02 -2.66 4.04 -3 2 C-2.34 2 -1.68 2 -1 2 C-0.67 1.34 -0.34 0.68 0 0 Z " fill="#09192C" transform="translate(376,534)"/>
<path d="M0 0 C2.96175123 0.61277612 4.38058783 1.25372522 7 3 C6.67 4.32 6.34 5.64 6 7 C5.34 6.67 4.68 6.34 4 6 C4 5.01 4 4.02 4 3 C3.34 3 2.68 3 2 3 C2 2.34 2 1.68 2 1 C1.34 0.67 0.68 0.34 0 0 Z " fill="#C70551" transform="translate(464,295)"/>
<path d="M0 0 C2.76262553 0.3810518 3.84143894 0.83597132 5.8125 2.875 C6.204375 3.57625 6.59625 4.2775 7 5 C6.67 5.99 6.34 6.98 6 8 C4.9970458 6.85675161 3.99770973 5.71032809 3 4.5625 C2.443125 3.92441406 1.88625 3.28632813 1.3125 2.62890625 C0 1 0 1 0 0 Z " fill="#2F0E38" transform="translate(463,288)"/>
<path d="M0 0 C2.475 0.99 2.475 0.99 5 2 C5 3.65 5 5.3 5 7 C3.29115995 5.37660195 1.62553283 3.70680947 0 2 C0 1.34 0 0.68 0 0 Z " fill="#C20652" transform="translate(356,395)"/>
<path d="M0 0 C-0.66 2.64 -1.32 5.28 -2 8 C-4 5 -4 5 -4 1 C-2 0 -2 0 0 0 Z " fill="#9F0E49" transform="translate(382,330)"/>
<path d="M0 0 C-3.51187196 2.40814077 -5.72656908 3.36629408 -10 3 C-4.375 -1.3125 -4.375 -1.3125 0 0 Z " fill="#E55189" transform="translate(402,316)"/>
<path d="M0 0 C1.98 0 3.96 0 6 0 C5.01 0.66 4.02 1.32 3 2 C3 3.32 3 4.64 3 6 C2.34 6 1.68 6 1 6 C0.67 4.02 0.34 2.04 0 0 Z " fill="#E8DEEB" transform="translate(481,314)"/>
<path d="M0 0 C3.16717283 1.58358642 4.73268318 2.45263699 6.3125 5.6875 C6.539375 6.450625 6.76625 7.21375 7 8 C3.83282717 6.41641358 2.26731682 5.54736301 0.6875 2.3125 C0.460625 1.549375 0.23375 0.78625 0 0 Z " fill="#9F1355" transform="translate(463,290)"/>
<path d="M0 0 C0.99 0.495 0.99 0.495 2 1 C2 1.66 2 2.32 2 3 C2.99 3 3.98 3 5 3 C4.67 5.31 4.34 7.62 4 10 C3.67 10 3.34 10 3 10 C1.87119943 6.68885166 0.78697325 3.41021743 0 0 Z " fill="#101838" transform="translate(467,288)"/>
</svg>
