<?xml version="1.0" encoding="UTF-8"?>
<svg version="1.1" xmlns="http://www.w3.org/2000/svg" width="338" height="338">
<path d="M0 0 C111.54 0 223.08 0 338 0 C338 111.54 338 223.08 338 338 C226.46 338 114.92 338 0 338 C0 226.46 0 114.92 0 0 Z " fill="#0D1429" transform="translate(0,0)"/>
<path d="M0 0 C1.23165894 0.0028299 2.46331787 0.00565979 3.7322998 0.00857544 C7.64455102 0.01972048 11.55656862 0.04481501 15.46875 0.0703125 C18.13020498 0.08148284 20.79165777 0.08947417 23.453125 0.09765625 C29.95841229 0.11964126 36.46356445 0.15306233 42.96875 0.1953125 C43.04270127 6.20059023 42.70919688 9.508065 38.96875 14.1953125 C29.37522006 22.41833816 16.83078551 21.62852591 4.93164062 21.63476562 C-5.97224134 21.80163242 -16.17866276 23.49605729 -25.03125 30.1953125 C-25.69125 30.1953125 -26.35125 30.1953125 -27.03125 30.1953125 C-27.03125 30.8553125 -27.03125 31.5153125 -27.03125 32.1953125 C-28.02125 32.1953125 -29.01125 32.1953125 -30.03125 32.1953125 C-30.27875 32.8759375 -30.52625 33.5565625 -30.78125 34.2578125 C-32.03125 37.1953125 -32.03125 37.1953125 -34.03125 40.6328125 C-38.26352416 47.99602554 -38.27429397 53.11184009 -39.03125 62.1953125 C-19.56125 62.1953125 -0.09125 62.1953125 19.96875 62.1953125 C18.99335101 69.99850444 18.3327521 73.16221938 12.68041992 78.25854492 C3.15214353 85.06396642 -10.66459169 83.55987059 -21.84375 83.3828125 C-23.51886805 83.36772427 -25.19399939 83.35404325 -26.86914062 83.34179688 C-30.92351276 83.30915133 -34.97722944 83.25760342 -39.03125 83.1953125 C-39.01030273 84.06631592 -38.98935547 84.93731934 -38.96777344 85.8347168 C-38.89874148 89.13186665 -38.84904311 92.42822588 -38.81152344 95.72583008 C-38.79166606 97.1406685 -38.76457034 98.55542781 -38.72949219 99.9699707 C-38.47480192 110.52088945 -38.72797846 121.49638533 -45.34375 130.2578125 C-50.61808906 134.06024298 -54.28696013 136.45142477 -61.03125 136.1953125 C-61.22509134 81.66875443 -61.22509134 81.66875443 -60.71875 64.0078125 C-60.69627197 62.94022705 -60.67379395 61.8726416 -60.65063477 60.77270508 C-60.01289463 43.03022494 -53.74318994 25.43182115 -40.96875 12.8828125 C-29.17640451 2.66602832 -15.15799136 -0.13219328 0 0 Z " fill="#4369A3" transform="translate(163.03125,109.8046875)"/>
<path d="M0 0 C0.09327869 10.41506306 0.1640555 20.83002437 0.20724869 31.24542236 C0.2279945 36.08336292 0.25606989 40.92101466 0.30175781 45.75878906 C0.34568533 50.44023416 0.36923448 55.12140403 0.37950897 59.80303955 C0.3868172 61.57615483 0.40108431 63.34925754 0.42292023 65.12225342 C0.663012 85.45240431 -3.2325322 105.21230594 -17 121 C-27.78041518 131.63962618 -43.78149204 136.34294775 -58.63188171 136.33988953 C-59.77816544 136.32440567 -60.92444916 136.30892181 -62.10546875 136.29296875 C-63.3106868 136.28872391 -64.51590485 136.28447906 -65.75764465 136.28010559 C-69.56783376 136.26345222 -73.37747356 136.22582443 -77.1875 136.1875 C-79.78710168 136.17243595 -82.38671174 136.15875057 -84.98632812 136.14648438 C-91.32440288 136.11359248 -97.66216218 136.06352771 -104 136 C-103.31136638 129.43097534 -102.5729888 125.35025703 -97.49609375 120.58984375 C-88.19194524 113.18538217 -75.58030227 114.66906363 -64.3671875 114.69726562 C-52.45277471 114.50997009 -41.1642358 111.65703327 -32.234375 103.359375 C-24.08035633 94.93127167 -22.91825839 85.50955032 -21 74 C-40.47 74 -59.94 74 -80 74 C-80 67.79788865 -79.9061661 64.56988791 -76 60 C-68.84146299 54.20143557 -62.22727658 53.85088041 -53.32421875 53.90234375 C-52.3990596 53.9037587 -51.47390045 53.90517365 -50.52070618 53.90663147 C-47.57627073 53.91221285 -44.63191233 53.92476195 -41.6875 53.9375 C-39.68685006 53.94251741 -37.68619892 53.94707989 -35.68554688 53.95117188 C-30.79033506 53.96217619 -25.89518058 53.97942802 -21 54 C-21.01571045 53.0934668 -21.0314209 52.18693359 -21.04760742 51.25292969 C-21.09928972 47.83099439 -21.13661492 44.40948459 -21.16479492 40.98730469 C-21.17971429 39.51718527 -21.20005727 38.047109 -21.22631836 36.57714844 C-21.61274562 14.36136969 -21.61274562 14.36136969 -15.8125 6.5 C-10.85300281 2.09155805 -6.65919712 -0.11656338 0 0 Z " fill="#EE692A" transform="translate(235,92)"/>
<path d="M0 0 C1.23165894 0.0028299 2.46331787 0.00565979 3.7322998 0.00857544 C7.64455102 0.01972048 11.55656862 0.04481501 15.46875 0.0703125 C18.13020498 0.08148284 20.79165777 0.08947417 23.453125 0.09765625 C29.95841229 0.11964126 36.46356445 0.15306233 42.96875 0.1953125 C43.04270127 6.20059023 42.70919688 9.508065 38.96875 14.1953125 C30.41877839 21.5238596 19.56572847 21.62715891 8.84375 21.7578125 C-22.02556917 22.1737708 -22.02556917 22.1737708 -48.83203125 35.8203125 C-52.25308986 39.48755151 -54.29782315 43.45443831 -56.171875 48.08203125 C-57.02533429 50.18076523 -57.99486061 52.18162611 -59.03125 54.1953125 C-58.71351836 38.16430682 -52.39454992 24.12405471 -40.96875 12.8828125 C-29.17640451 2.66602832 -15.15799136 -0.13219328 0 0 Z " fill="#B74F9A" transform="translate(163.03125,109.8046875)"/>
<path d="M0 0 C0.33 0 0.66 0 1 0 C0.40988888 11.60551866 -3.998786 21.80977594 -11 31 C-11.42667969 31.61359375 -11.85335937 32.2271875 -12.29296875 32.859375 C-19.96487025 43.02858168 -33.80637345 48.02748007 -46 50 C-55.49742156 50.77620019 -65.04501936 50.47533378 -74.5625 50.3125 C-77.13474376 50.28736618 -79.70701139 50.26456207 -82.27929688 50.24414062 C-88.52006059 50.18959635 -94.75991565 50.10637905 -101 50 C-100.31136638 43.43097534 -99.5729888 39.35025703 -94.49609375 34.58984375 C-86.17785505 27.96999253 -75.66262937 28.71644414 -65.5625 28.5625 C-46.93769271 28.13624543 -24.09983362 27.39171129 -9 15 C-5.18723069 10.5006091 -2.46238844 5.33517495 0 0 Z " fill="#EE842C" transform="translate(232,178)"/>
<path d="M0 0 C-0.81984375 0.33773437 -1.6396875 0.67546875 -2.484375 1.0234375 C-3.56203125 1.46945313 -4.6396875 1.91546875 -5.75 2.375 C-6.81734375 2.81585938 -7.8846875 3.25671875 -8.984375 3.7109375 C-11.37555926 4.73307585 -13.69383183 5.80213595 -16 7 C-16 7.66 -16 8.32 -16 9 C-16.99 9 -17.98 9 -19 9 C-19.2475 9.680625 -19.495 10.36125 -19.75 11.0625 C-21 14 -21 14 -23 17.4375 C-27.23227416 24.80071304 -27.24304397 29.91652759 -28 39 C-8.53 39 10.94 39 31 39 C30.00067098 46.99463214 29.19179622 49.80820378 23.75 55.25 C18.92251298 58.3220372 13.70818752 59.35676172 8 59 C8.33 58.01 8.66 57.02 9 56 C9.99 56.33 10.98 56.66 12 57 C12.495 56.01 12.495 56.01 13 55 C14.32 55 15.64 55 17 55 C16.505 53.02 16.505 53.02 16 51 C15.4225 51.309375 14.845 51.61875 14.25 51.9375 C12.15705816 52.92583364 10.25464725 53.5168613 8 54 C8.99 53.01 9.98 52.02 11 51 C3.99633429 46.33088952 -6.5630395 47.71326574 -14.6875 47.625 C-16.61625977 47.56892578 -16.61625977 47.56892578 -18.58398438 47.51171875 C-29.93198145 47.40850301 -39.91656541 49.99277903 -49 57 C-49.04939662 53.04903022 -49.08571755 49.0981797 -49.10986328 45.14697266 C-49.12488107 43.1408864 -49.15028981 41.13488676 -49.17578125 39.12890625 C-49.18544922 37.24365234 -49.18544922 37.24365234 -49.1953125 35.3203125 C-49.20578613 34.15773926 -49.21625977 32.99516602 -49.22705078 31.79736328 C-49 29 -49 29 -47 27 C-46.12476361 25.13474212 -45.27408433 23.25791061 -44.4375 21.375 C-40.25576571 12.91003302 -34.25826897 7.28818965 -25.45703125 3.8046875 C-7.40635568 -2.10698049 -7.40635568 -2.10698049 0 0 Z " fill="#5E2E7B" transform="translate(152,133)"/>
<path d="M0 0 C0.1242878 5.26521342 0.21466072 10.52955926 0.2746582 15.79589844 C0.29968775 17.58446136 0.33372244 19.37292317 0.37719727 21.16113281 C0.43836411 23.74309323 0.46632445 26.32369322 0.48828125 28.90625 C0.51408768 29.69616333 0.5398941 30.48607666 0.56648254 31.29992676 C0.57020786 38.79864736 -2.70985325 43.29880127 -7.4375 48.875 C-11.74332001 52.44568001 -15.54632595 53.10133516 -21 53 C-21.07521585 48.80488424 -21.12909381 44.61014523 -21.16479492 40.41455078 C-21.17970701 38.99293159 -21.20004409 37.57135693 -21.22631836 36.14990234 C-21.61845515 14.35939915 -21.61845515 14.35939915 -15.8125 6.5 C-10.85300281 2.09155805 -6.65919712 -0.11656338 0 0 Z " fill="#81AF44" transform="translate(235,92)"/>
<path d="M0 0 C0.33 0 0.66 0 1 0 C1.13548815 2.73083902 1.23429855 5.45491807 1.3125 8.1875 C1.35439453 8.95642578 1.39628906 9.72535156 1.43945312 10.51757812 C1.45556641 11.26845703 1.47167969 12.01933594 1.48828125 12.79296875 C1.51446533 13.4789917 1.54064941 14.16501465 1.56762695 14.87182617 C0.4140974 19.19669374 -3.20375501 21.4992312 -6.83886719 23.78540039 C-17.31708223 28.68400579 -26.83086681 28.73905422 -38.25 28.4375 C-40.02861499 28.41590856 -41.80726483 28.39701429 -43.5859375 28.38085938 C-51.7718727 28.28209914 -59.86894164 28.02059965 -68 27 C-68 25.68 -68 24.36 -68 23 C-67.34 23 -66.68 23 -66 23 C-66 22.01 -66 21.02 -66 20 C-62.91190305 18.23537317 -61.76687864 18 -58 18 C-58 17.34 -58 16.68 -58 16 C-56.90647217 15.98541748 -55.81294434 15.97083496 -54.6862793 15.95581055 C-50.58017316 15.89728506 -46.47458477 15.82006197 -42.36889648 15.73754883 C-40.60107912 15.70455215 -38.83316279 15.67644396 -37.06518555 15.65356445 C-20.94513433 16.18101533 -20.94513433 16.18101533 -6.78588867 10.05151367 C-3.90674084 6.95332091 -1.79052043 3.82948629 0 0 Z " fill="#F09C2F" transform="translate(234,130)"/>
<path d="M0 0 C1.93359375 0.01450195 1.93359375 0.01450195 3.90625 0.02929688 C11.3143841 0.11587568 18.63612003 0.49822481 26 1.3125 C26.495 2.7975 26.495 2.7975 27 4.3125 C26.01 4.9725 25.02 5.6325 24 6.3125 C24.5775 5.9825 25.155 5.6525 25.75 5.3125 C28 4.3125 28 4.3125 32 4.3125 C32 5.6325 32 6.9525 32 8.3125 C30.68 8.3125 29.36 8.3125 28 8.3125 C27.67 9.3025 27.34 10.2925 27 11.3125 C26.01 10.9825 25.02 10.6525 24 10.3125 C23.67 10.9725 23.34 11.6325 23 12.3125 C21.35185303 12.32651855 21.35185303 12.32651855 19.67041016 12.34082031 C15.55119908 12.38102218 11.43271141 12.44686106 7.31396484 12.52001953 C5.53932058 12.54805549 3.76455547 12.5693555 1.98974609 12.58349609 C-13.75708623 12.41816259 -13.75708623 12.41816259 -27.4375 19.3828125 C-27.953125 20.06085938 -28.46875 20.73890625 -29 21.4375 C-29.53625 22.12070313 -30.0725 22.80390625 -30.625 23.5078125 C-31.07875 24.10335937 -31.5325 24.69890625 -32 25.3125 C-32.66 25.9725 -33.32 26.6325 -34 27.3125 C-35.20235756 12.31642927 -35.20235756 12.31642927 -32.60546875 7.98828125 C-30.49084433 6.34740161 -28.44147212 5.40705874 -26 4.3125 C-25.22889893 3.95687988 -24.45779785 3.60125977 -23.66333008 3.23486328 C-15.72514824 -0.04135832 -8.50567403 -0.19137767 0 0 Z " fill="#C359A0" transform="translate(137,179.6875)"/>
<path d="M0 0 C19.14 0 38.28 0 58 0 C58 8.13513514 58 8.13513514 54 13 C49.40423467 17.59576533 44.34178531 18.86075895 38 19.125 C37.34 19.08375 36.68 19.0425 36 19 C36.495 17.515 36.495 17.515 37 16 C37.99 16.33 38.98 16.66 40 17 C40.33 16.34 40.66 15.68 41 15 C42.32 15 43.64 15 45 15 C44.505 13.02 44.505 13.02 44 11 C43.4225 11.309375 42.845 11.61875 42.25 11.9375 C40.15705816 12.92583364 38.25464725 13.5168613 36 14 C36.99 13.01 37.98 12.02 39 11 C31.99633429 6.33088952 21.4369605 7.71326574 13.3125 7.625 C11.38374023 7.56892578 11.38374023 7.56892578 9.41601562 7.51171875 C-1.8908196 7.4088774 -11.94808432 10.01709362 -21 17 C-21 12.38 -21 7.76 -21 3 C-19 7 -19 7 -19 10 C-16.23723823 9.47731534 -13.6739124 8.89130413 -11 8 C-11 7.34 -11 6.68 -11 6 C-4.565 5.505 -4.565 5.505 2 5 C1.34 3.35 0.68 1.7 0 0 Z " fill="#622F7E" transform="translate(124,173)"/>
<path d="M0 0 C0.33 0 0.66 0 1 0 C0.40988888 11.60551866 -3.998786 21.80977594 -11 31 C-11.42667969 31.61359375 -11.85335937 32.2271875 -12.29296875 32.859375 C-19.47349149 42.37725264 -31.62020394 46.93889534 -43 49 C-47.36112629 49.27510724 -51.63941941 49.26076562 -56 49 C-56 48.67 -56 48.34 -56 48 C-55.32195312 47.87882812 -54.64390625 47.75765625 -53.9453125 47.6328125 C-51.99404313 47.28147591 -50.04356705 46.92571532 -48.09375 46.56640625 C-46.13753861 46.20826149 -44.17936524 45.86053819 -42.21875 45.52734375 C-37.45136623 44.67294817 -34.11951305 43.63191112 -30 41 C-26.6875 40.3125 -26.6875 40.3125 -24 40 C-24 36.37 -24 32.74 -24 29 C-25.98 29.99 -25.98 29.99 -28 31 C-30.4375 30.625 -30.4375 30.625 -33 30 C-34.6662553 29.9629721 -36.33401319 29.95240038 -38 30 C-38.33 29.34 -38.66 28.68 -39 28 C-38.17773926 27.84978394 -38.17773926 27.84978394 -37.33886719 27.6965332 C-31.56964567 26.54305762 -26.54326506 24.72884154 -21.25 22.1875 C-20.52167969 21.85685547 -19.79335937 21.52621094 -19.04296875 21.18554688 C-14.53774832 19.05558331 -11.35464929 16.78250659 -8 13 C-7.319375 12.236875 -6.63875 11.47375 -5.9375 10.6875 C-3.50695318 7.31609635 -1.75310063 3.75797634 0 0 Z " fill="#F3C62C" transform="translate(232,178)"/>
<path d="M0 0 C0 0.66 0 1.32 0 2 C-2.90600261 3.25664978 -4.79604584 4 -8 4 C-8 4.99 -8 5.98 -8 7 C-8.66 7 -9.32 7 -10 7 C-10 8.32 -10 9.64 -10 11 C-9.41734375 10.98839844 -8.8346875 10.97679687 -8.234375 10.96484375 C-1.43987745 10.89006154 5.23892255 11.34944959 12 12 C12 12.99 12 13.98 12 15 C13.32 15.66 14.64 16.32 16 17 C16 17.33 16 17.66 16 18 C26.89 18.495 26.89 18.495 38 19 C38 19.33 38 19.66 38 20 C18.53 20 -0.94 20 -21 20 C-21 13.79788865 -20.9061661 10.56988791 -17 6 C-11.59817732 1.62441086 -6.93182726 0 0 0 Z " fill="#C84838" transform="translate(176,146)"/>
<path d="M0 0 C0.33 0 0.66 0 1 0 C1.13548815 2.73083902 1.23429855 5.45491807 1.3125 8.1875 C1.35439453 8.95642578 1.39628906 9.72535156 1.43945312 10.51757812 C1.52887162 14.6844799 1.41433369 16.45251419 -1.17578125 19.875 C-9.8206891 26.37960563 -18.38511255 27.77043538 -29 27 C-28.01 26.67 -27.02 26.34 -26 26 C-26 23.36 -26 20.72 -26 18 C-36.56 17.67 -47.12 17.34 -58 17 C-58 16.67 -58 16.34 -58 16 C-56.35970825 15.97812622 -56.35970825 15.97812622 -54.6862793 15.95581055 C-50.58017316 15.89728506 -46.47458477 15.82006197 -42.36889648 15.73754883 C-40.60107912 15.70455215 -38.83316279 15.67644396 -37.06518555 15.65356445 C-20.94513433 16.18101533 -20.94513433 16.18101533 -6.78588867 10.05151367 C-3.90674084 6.95332091 -1.79052043 3.82948629 0 0 Z " fill="#F9BD2B" transform="translate(234,130)"/>
<path d="M0 0 C-2.62637999 3.69638666 -4.52740559 5.8818514 -9 7 C-9.66 6.814375 -10.32 6.62875 -11 6.4375 C-13.14322308 5.76316028 -13.14322308 5.76316028 -15.5625 7.125 C-18.13332533 8.85940214 -18.13332533 8.85940214 -19.5 11.5625 C-21.34112403 14.55432655 -22.82508739 14.74674502 -26 16 C-26.88693303 18.04105639 -26.88693303 18.04105639 -27 20 C-26.01 20.66 -25.02 21.32 -24 22 C-21.5046144 21.51263682 -21.5046144 21.51263682 -18.9375 20.375 C-18.05964844 20.03210938 -17.18179688 19.68921875 -16.27734375 19.3359375 C-13.7121514 17.83114198 -13.02465421 16.74398924 -12 14 C-11.34 14 -10.68 14 -10 14 C-10 14.66 -10 15.32 -10 16 C-8.824375 15.9690625 -8.824375 15.9690625 -7.625 15.9375 C-5 16 -5 16 -3 17 C-1.67139075 17.35169068 -0.33841672 17.68770276 1 18 C0.11699219 18.24234375 -0.76601562 18.4846875 -1.67578125 18.734375 C-22.16942582 24.09465288 -22.16942582 24.09465288 -36.74609375 38.609375 C-38.66193329 42.26200365 -39.92889394 46.02563279 -41 50 C-41.33 50 -41.66 50 -42 50 C-41.70941083 35.33845575 -36.46819602 22.01133755 -26.421875 11.234375 C-19.70291828 4.81570685 -9.96341459 -3.3211382 0 0 Z " fill="#D075AD" transform="translate(146,114)"/>
<path d="M0 0 C0.33 0 0.66 0 1 0 C1.103125 1.051875 1.20625 2.10375 1.3125 3.1875 C1.97733415 6.87430754 2.88566296 8.96638599 5 12 C5.99 11.67 6.98 11.34 8 11 C8.3125 13.25 8.3125 13.25 8 16 C1.26709659 23.16728428 -11.01895949 26.49599247 -20.54296875 27.18359375 C-22.36300548 27.18681505 -24.18298179 27.10482797 -26 27 C-23.83070762 24.83070762 -22.17080476 24.14497605 -19.375 22.9375 C-11.08256866 18.86928839 -6.18992373 12.50646327 -3 4 C-2.34 3.67 -1.68 3.34 -1 3 C-0.67 2.01 -0.34 1.02 0 0 Z " fill="#DC551E" transform="translate(214,178)"/>
<path d="M0 0 C0.33 0 0.66 0 1 0 C1.02902168 4.41665288 1.04680608 8.83328123 1.0625 13.25 C1.07087891 14.50425781 1.07925781 15.75851563 1.08789062 17.05078125 C1.09111328 18.25605469 1.09433594 19.46132812 1.09765625 20.703125 C1.10289307 21.81333008 1.10812988 22.92353516 1.11352539 24.06738281 C1.01658493 26.57157379 0.73230276 28.6181156 0 31 C-0.66 31 -1.32 31 -2 31 C-2.33 31.66 -2.66 32.32 -3 33 C-2.67 26.07 -2.34 19.14 -2 12 C-3.98 12.66 -5.96 13.32 -8 14 C-8 13.34 -8 12.68 -8 12 C-9.32 12 -10.64 12 -12 12 C-11.34 13.65 -10.68 15.3 -10 17 C-10.66 17.33 -11.32 17.66 -12 18 C-12 16.68 -12 15.36 -12 14 C-12.99 14 -13.98 14 -15 14 C-15.66 15.32 -16.32 16.64 -17 18 C-17.99 17.67 -18.98 17.34 -20 17 C-20.33 16.34 -20.66 15.68 -21 15 C-21.99 15 -22.98 15 -24 15 C-24 14.01 -24 13.02 -24 12 C-29.94 12 -35.88 12 -42 12 C-42 11.67 -42 11.34 -42 11 C-41.01942627 11.00169189 -41.01942627 11.00169189 -40.01904297 11.00341797 C-26.55941111 10.94898302 -15.97305659 10.3352581 -4 4 C-3.34 4 -2.68 4 -2 4 C-1.34 2.68 -0.68 1.36 0 0 Z " fill="#E97A2C" transform="translate(234,147)"/>
<path d="M0 0 C1.37466431 0.07069702 1.37466431 0.07069702 2.77709961 0.14282227 C4.26113281 0.21533203 4.26113281 0.21533203 5.77514648 0.28930664 C7.33652344 0.37341797 7.33652344 0.37341797 8.92944336 0.45922852 C10.49662109 0.53753906 10.49662109 0.53753906 12.09545898 0.61743164 C14.68622572 0.74756148 17.27665002 0.8825401 19.86694336 1.02172852 C19.86694336 2.01172852 19.86694336 3.00172852 19.86694336 4.02172852 C21.18694336 3.69172852 22.50694336 3.36172852 23.86694336 3.02172852 C23.86694336 4.01172852 23.86694336 5.00172852 23.86694336 6.02172852 C25.84231081 5.67386143 25.84231081 5.67386143 27.86694336 5.02172852 C28.19694336 4.36172852 28.52694336 3.70172852 28.86694336 3.02172852 C29.85694336 3.02172852 30.84694336 3.02172852 31.86694336 3.02172852 C31.7796076 4.62689949 31.67142112 6.23094514 31.55444336 7.83422852 C31.46743164 9.17420898 31.46743164 9.17420898 31.37866211 10.54125977 C30.80380755 13.32776851 30.04625776 14.26308606 27.86694336 16.02172852 C27.86694336 15.36172852 27.86694336 14.70172852 27.86694336 14.02172852 C27.20694336 14.02172852 26.54694336 14.02172852 25.86694336 14.02172852 C26.11444336 14.92922852 26.36194336 15.83672852 26.61694336 16.77172852 C26.86694336 20.02172852 26.86694336 20.02172852 24.92944336 22.39672852 C24.24881836 22.93297852 23.56819336 23.46922852 22.86694336 24.02172852 C21.53119766 20.24801339 22.14285665 17.16341505 22.80444336 13.27172852 C22.9990918 12.10125977 23.19374023 10.93079102 23.39428711 9.72485352 C23.55026367 8.83282227 23.70624023 7.94079102 23.86694336 7.02172852 C23.22144531 7.03220215 22.57594727 7.04267578 21.91088867 7.0534668 C18.97961334 7.09510124 16.04840032 7.12107827 13.11694336 7.14672852 C12.10116211 7.16348633 11.08538086 7.18024414 10.03881836 7.19750977 C9.05913086 7.20395508 8.07944336 7.21040039 7.07006836 7.21704102 C5.71896973 7.23275146 5.71896973 7.23275146 4.34057617 7.2487793 C1.69101513 7.00558035 0.09262266 6.46205918 -2.13305664 5.02172852 C-2.94555664 2.95922852 -2.94555664 2.95922852 -3.13305664 1.02172852 C-2.13305664 0.02172852 -2.13305664 0.02172852 0 0 Z " fill="#DC6939" transform="translate(190.133056640625,157.978271484375)"/>
<path d="M0 0 C1.78513619 0.02009777 3.57029425 0.03834274 5.35546875 0.0546875 C9.6958596 0.09841914 14.0351846 0.16726411 18.375 0.25 C18.375 0.58 18.375 0.91 18.375 1.25 C6.495 1.25 -5.385 1.25 -17.625 1.25 C-17.625 11.48 -17.625 21.71 -17.625 32.25 C-17.955 32.25 -18.285 32.25 -18.625 32.25 C-20.3541857 26.08977593 -21.71607044 20.52321131 -19.625 14.25 C-19.8647871 11.14384662 -19.8647871 11.14384662 -20.625 8.25 C-21.285 7.92 -21.945 7.59 -22.625 7.25 C-22.625 6.59 -22.625 5.93 -22.625 5.25 C-25.70456297 6.77351923 -25.70456297 6.77351923 -28.625 9.25 C-29.59850778 12.8865731 -29.59850778 12.8865731 -29.625 16.25 C-30.40875 16.45625 -31.1925 16.6625 -32 16.875 C-34.93416286 18.05676612 -34.93416286 18.05676612 -35.9375 21.375 C-36.164375 22.32375 -36.39125 23.2725 -36.625 24.25 C-36.955 24.25 -37.285 24.25 -37.625 24.25 C-38.28317492 19.3593947 -38.6333641 15.07938186 -36.1953125 10.65625 C-26.4149122 -1.12736482 -14.09178304 -0.27677024 0 0 Z " fill="#403B86" transform="translate(141.625,191.75)"/>
<path d="M0 0 C0.33 0 0.66 0 1 0 C1.02505615 0.88147705 1.0501123 1.7629541 1.07592773 2.67114258 C1.17202096 5.99431204 1.27118401 9.31736229 1.37231445 12.64038086 C1.4151794 14.06873082 1.45687966 15.49711629 1.49731445 16.92553711 C1.76088179 26.71898703 1.76088179 26.71898703 2.55859375 36.48046875 C3.29114854 43.81218404 2.89162786 51.15163116 2.625 58.5 C2.57387071 60.01716226 2.52300979 61.53433359 2.47241211 63.05151367 C2.34765877 66.71678003 2.21297537 70.38159081 2.07354736 74.04632568 C2.00704554 75.81284582 1.94445317 77.57951207 1.88232422 79.34619141 C1.78694187 82.00225714 1.67890932 84.65728462 1.5625 87.3125 C1.53559082 88.0446875 1.50868164 88.776875 1.48095703 89.53125 C1.28550738 93.39909577 0.67307053 96.49806694 -1 100 C-1.66 100 -2.32 100 -3 100 C-3.33 102.64 -3.66 105.28 -4 108 C-5.485 108.495 -5.485 108.495 -7 109 C-7.33 109.99 -7.66 110.98 -8 112 C-8.66 112 -9.32 112 -10 112 C-8.2174478 106.55331271 -6.22810043 101.1945609 -4.21875 95.828125 C-0.62162398 85.01985324 -0.65938111 74.35448508 -0.5859375 63.0859375 C-0.56719987 61.26176096 -0.54762458 59.43759285 -0.5272522 57.61343384 C-0.47619893 52.84276326 -0.43643075 48.07206466 -0.39910889 43.30126953 C-0.35890002 38.42082949 -0.30788519 33.54050329 -0.2578125 28.66015625 C-0.16137113 19.10685112 -0.07686588 9.5534813 0 0 Z " fill="#241F0D" transform="translate(235,92)"/>
<path d="M0 0 C0 0.33 0 0.66 0 1 C-0.61488281 1.10957031 -1.22976562 1.21914062 -1.86328125 1.33203125 C-2.67152344 1.49058594 -3.47976562 1.64914063 -4.3125 1.8125 C-5.51326172 2.03873047 -5.51326172 2.03873047 -6.73828125 2.26953125 C-9.30934734 3.09991011 -10.4242399 3.81229422 -12 6 C-12 7.32 -12 8.64 -12 10 C-11.45182617 9.83701416 -10.90365234 9.67402832 -10.33886719 9.50610352 C-7.68558577 8.93196444 -5.29257322 8.88726348 -2.578125 8.90234375 C-1.55332031 8.90556641 -0.52851562 8.90878906 0.52734375 8.91210938 C1.59082031 8.92048828 2.65429688 8.92886719 3.75 8.9375 C4.82894531 8.94201172 5.90789062 8.94652344 7.01953125 8.95117188 C9.67974383 8.96294273 12.33984365 8.97938601 15 9 C15 9.33 15 9.66 15 10 C13.88882813 10.02578125 12.77765625 10.0515625 11.6328125 10.078125 C-2.28945629 10.32632432 -2.28945629 10.32632432 -14.0859375 16.97265625 C-15.82112509 18.92385699 -17.41842781 20.92418649 -19 23 C-19.66 23.66 -20.32 24.32 -21 25 C-22.21744181 9.81579521 -22.21744181 9.81579521 -19.39453125 5.60546875 C-17.32060895 4.06850945 -15.37727755 2.99462081 -13 2 C-12.175 1.54625 -11.35 1.0925 -10.5 0.625 C-6.93395913 -0.26651022 -3.67163751 -0.12446229 0 0 Z " fill="#D584BD" transform="translate(124,182)"/>
<path d="M0 0 C0.99 0.33 1.98 0.66 3 1 C-7.92746134 8.6398297 -17.89690478 10.57245543 -31.125 10.625 C-47.29662093 10.38566289 -47.29662093 10.38566289 -61.33984375 17.2890625 C-65.03534986 21.09760762 -66.21631478 25.82767758 -67 31 C-67.66 31 -68.32 31 -69 31 C-68.8864371 29.35333797 -68.75882619 27.70763918 -68.625 26.0625 C-68.55539063 25.14597656 -68.48578125 24.22945312 -68.4140625 23.28515625 C-68.27742187 22.53105469 -68.14078125 21.77695313 -68 21 C-67.34 20.67 -66.68 20.34 -66 20 C-65.09274566 17.88672575 -65.09274566 17.88672575 -64.375 15.4375 C-63.98441406 14.19806641 -63.98441406 14.19806641 -63.5859375 12.93359375 C-63.39257812 12.29550781 -63.19921875 11.65742188 -63 11 C-60.03 11 -57.06 11 -54 11 C-54 10.34 -54 9.68 -54 9 C-42.12 8.34 -30.24 7.68 -18 7 C-18 6.34 -18 5.68 -18 5 C-19.32 4.34 -20.64 3.68 -22 3 C-20.35 3 -18.7 3 -17 3 C-16.505 4.485 -16.505 4.485 -16 6 C-14.08063787 5.57448104 -12.16457126 5.13408062 -10.25 4.6875 C-9.18265625 4.44386719 -8.1153125 4.20023438 -7.015625 3.94921875 C-3.98079456 3.17977449 -3.98079456 3.17977449 -1.796875 1.33203125 C-1.20390625 0.89246094 -0.6109375 0.45289063 0 0 Z " fill="#301412" transform="translate(198,197)"/>
<path d="M0 0 C1.68128998 0.00022659 1.68128998 0.00022659 3.39654541 0.00045776 C4.60083191 0.01078033 5.80511841 0.02110291 7.04589844 0.03173828 C8.90187653 0.03598312 8.90187653 0.03598312 10.79534912 0.04031372 C14.07678885 0.04960878 17.35803098 0.06756373 20.6394043 0.08972168 C23.99102966 0.1102203 27.34266351 0.11915354 30.69433594 0.12939453 C37.26472567 0.15145048 43.83498339 0.18492496 50.40527344 0.22705078 C50.47912783 6.2244615 50.15195334 9.54951873 46.40527344 14.22705078 C42.01533033 17.91859385 37.97488347 19.32872658 32.40527344 20.22705078 C29.90527344 19.35205078 29.90527344 19.35205078 28.40527344 18.22705078 C29.68402344 17.97955078 30.96277344 17.73205078 32.28027344 17.47705078 C35.61449549 16.72173105 35.61449549 16.72173105 37.84277344 14.22705078 C38.12121094 13.23705078 38.12121094 13.23705078 38.40527344 12.22705078 C38.73527344 11.56705078 39.06527344 10.90705078 39.40527344 10.22705078 C40.20964844 10.10330078 41.01402344 9.97955078 41.84277344 9.85205078 C44.53554774 9.49172261 44.53554774 9.49172261 45.78027344 7.28955078 C46.67398578 5.19165479 46.67398578 5.19165479 45.40527344 3.22705078 C42.0603366 2.2326101 39.71572147 2.1235681 36.40527344 3.22705078 C36.40527344 2.56705078 36.40527344 1.90705078 36.40527344 1.22705078 C35.77532471 1.39003662 35.14537598 1.55302246 34.49633789 1.72094727 C30.29723686 2.40847088 26.19575434 2.34987598 21.94824219 2.32470703 C21.04527908 2.32329208 20.14231598 2.32187714 19.21199036 2.32041931 C16.33888381 2.31483902 13.46585628 2.30229013 10.59277344 2.28955078 C8.64030061 2.28453324 6.68782655 2.27997077 4.73535156 2.27587891 C-0.04137142 2.26487603 -4.81803561 2.24762496 -9.59472656 2.22705078 C-6.29101931 0.25361139 -3.82232141 -0.01721766 0 0 Z " fill="#84457E" transform="translate(155.5947265625,109.77294921875)"/>
<path d="M0 0 C0 11.88 0 23.76 0 36 C-0.33 36 -0.66 36 -1 36 C-1.79585256 25.312837 -2.12825004 14.71600323 -2 4 C-4.97 4.66 -7.94 5.32 -11 6 C-10.95875 7.093125 -10.9175 8.18625 -10.875 9.3125 C-11 13 -11 13 -13 16 C-12.34 16 -11.68 16 -11 16 C-11.66 17.32 -12.32 18.64 -13 20 C-14.98 19.67 -16.96 19.34 -19 19 C-19 20.65 -19 22.3 -19 24 C-19.33 24 -19.66 24 -20 24 C-20.42831938 17.14688989 -18.90161829 12.0989335 -15.3125 6.25 C-10.66551678 1.72861092 -6.4712914 0 0 0 Z " fill="#A3BB54" transform="translate(235,92)"/>
<path d="M0 0 C1.47678267 2.34547836 2.04213044 3.59140162 1.75390625 6.38671875 C0.31722103 11.36673126 -3.50971948 15.40664255 -7.84375 18.1796875 C-11.4951073 19.86123363 -13.88923919 20 -18 20 C-18 15.71 -18 11.42 -18 7 C-17.34 6.67 -16.68 6.34 -16 6 C-15.96261719 6.69867188 -15.92523438 7.39734375 -15.88671875 8.1171875 C-15.82097656 9.02726563 -15.75523437 9.93734375 -15.6875 10.875 C-15.62949219 11.77992188 -15.57148438 12.68484375 -15.51171875 13.6171875 C-15.2117961 16.36221601 -15.2117961 16.36221601 -12 18 C-11.01 13.05 -10.02 8.1 -9 3 C-8.67 3.99 -8.34 4.98 -8 6 C-7.34 6 -6.68 6 -6 6 C-6 4.35 -6 2.7 -6 1 C-4.02 1.66 -2.04 2.32 0 3 C0 2.01 0 1.02 0 0 Z " fill="#62A546" transform="translate(232,125)"/>
<path d="M0 0 C0.495 0.99 0.495 0.99 1 2 C0.29423828 2.87011719 0.29423828 2.87011719 -0.42578125 3.7578125 C-4.47548488 8.79297511 -4.47548488 8.79297511 -7.4375 14.5 C-9 17 -9 17 -10.8828125 17.4453125 C-11.60210937 17.50460938 -12.32140625 17.56390625 -13.0625 17.625 C-14.361875 17.74875 -15.66125 17.8725 -17 18 C-18.30065921 19.93383287 -18.30065921 19.93383287 -19 22 C-20.875 22.625 -20.875 22.625 -23 23 C-23.57329041 23.33305145 -24.14658081 23.66610291 -24.73724365 24.00924683 C-27.71209954 25.31179445 -30.08408441 25.23982644 -33.32910156 25.22705078 C-35.25064056 25.22682419 -35.25064056 25.22682419 -37.21099854 25.22659302 C-38.60420894 25.21638051 -39.99741776 25.20594853 -41.390625 25.1953125 C-42.81980186 25.19158064 -44.24898128 25.18873448 -45.67816162 25.18673706 C-49.43305571 25.17911419 -53.18779419 25.15947739 -56.94262695 25.1373291 C-60.77683406 25.11684159 -64.61106639 25.10772914 -68.4453125 25.09765625 C-75.96361248 25.07623012 -83.4817844 25.04211056 -91 25 C-91 24.67 -91 24.34 -91 24 C-90.37376236 23.99857498 -89.74752472 23.99714996 -89.10231018 23.99568176 C-82.49771061 23.97577095 -75.89400894 23.92104886 -69.28979492 23.84741211 C-66.83543371 23.82442307 -64.38097652 23.80988197 -61.92651367 23.80444336 C-43.17801879 23.75475316 -24.41099787 23.18910797 -9 11 C-5.71413186 7.52167387 -2.78458992 3.88858137 0 0 Z " fill="#2D1610" transform="translate(224,204)"/>
<path d="M0 0 C0.92490234 0.00064453 1.84980469 0.00128906 2.80273438 0.00195312 C8.93994521 0.04066013 14.96851017 0.46866232 21.0625 1.1875 C21.0625 1.5175 21.0625 1.8475 21.0625 2.1875 C20.22178955 2.20208252 19.3810791 2.21666504 18.51489258 2.23168945 C15.32932586 2.29355148 12.14433281 2.3678396 8.95922852 2.44995117 C7.5931246 2.48275559 6.22689956 2.51091819 4.8605957 2.53393555 C-10.3925841 2.73038005 -10.3925841 2.73038005 -24.61401367 7.66918945 C-27.95334156 10.91938722 -27.95334156 10.91938722 -29.9375 20.1875 C-12.4475 20.1875 5.0425 20.1875 23.0625 20.1875 C23.0625 20.5175 23.0625 20.8475 23.0625 21.1875 C4.9125 21.1875 -13.2375 21.1875 -31.9375 21.1875 C-30.93440348 13.16272786 -29.93254583 9.35771629 -23.75 4.4375 C-16.57825747 -0.20555842 -8.28524429 -0.10924333 0 0 Z " fill="#B15546" transform="translate(162.9375,206.8125)"/>
<path d="M0 0 C0.29216602 4.96682232 0.24708889 8.10349334 -3 12 C-7.98790812 15.40637628 -13.13483773 15.66385434 -19 16 C-18.67 15.01 -18.34 14.02 -18 13 C-17.01 13.33 -16.02 13.66 -15 14 C-14.67 13.34 -14.34 12.68 -14 12 C-12.68 12 -11.36 12 -10 12 C-10.33 10.68 -10.66 9.36 -11 8 C-11.5775 8.309375 -12.155 8.61875 -12.75 8.9375 C-14.84294184 9.92583364 -16.74535275 10.5168613 -19 11 C-18.01 10.01 -17.02 9.02 -16 8 C-18.90092502 6.06604999 -19.89674737 5.69868059 -23.1875 5.375 C-24.445625 5.25125 -25.70375 5.1275 -27 5 C-27 4.67 -27 4.34 -27 4 C-25.19015625 3.94392578 -25.19015625 3.94392578 -23.34375 3.88671875 C-21.72913822 3.82100781 -20.11455622 3.75456229 -18.5 3.6875 C-17.31277344 3.65366211 -17.31277344 3.65366211 -16.1015625 3.61914062 C-10.62012138 3.37202648 -5.01872424 0 0 0 Z " fill="#8F358D" transform="translate(179,176)"/>
<path d="M0 0 C8.03571429 0.9375 8.03571429 0.9375 12 2 C11.24976563 2.32871094 10.49953125 2.65742187 9.7265625 2.99609375 C-4.76623873 9.73141321 -13.28573696 19.22227886 -19.16015625 33.8984375 C-19.84238316 35.91021361 -20.43508539 37.95218454 -21 40 C-21.66 40 -22.32 40 -23 40 C-23.33 37.36 -23.66 34.72 -24 32 C-22.68 31.67 -21.36 31.34 -20 31 C-20.0825 30.278125 -20.165 29.55625 -20.25 28.8125 C-19.92256852 25.12889581 -18.53906064 23.61373889 -16 21 C-15.34 21 -14.68 21 -14 21 C-13.7525 20.0925 -13.505 19.185 -13.25 18.25 C-11.95193799 14.87503877 -10.78028159 13.25897879 -8 11 C-7.34 11 -6.68 11 -6 11 C-6.33 9.35 -6.66 7.7 -7 6 C-6.34 5.67 -5.68 5.34 -5 5 C-5.33 4.34 -5.66 3.68 -6 3 C-4.68 3.33 -3.36 3.66 -2 4 C-1.34 2.68 -0.68 1.36 0 0 Z " fill="#17112B" transform="translate(127,112)"/>
<path d="M0 0 C0.33 0 0.66 0 1 0 C1 5.61 1 11.22 1 17 C0.67 17 0.34 17 0 17 C0 13.7 0 10.4 0 7 C-6.45823014 11.13681062 -6.45823014 11.13681062 -10.88671875 17.08984375 C-11.20030239 19.17603634 -11.20030239 19.17603634 -11 22 C-15.29 22 -19.58 22 -24 22 C-24 21.34 -24 20.68 -24 20 C-22.35 20.33 -20.7 20.66 -19 21 C-19 20.01 -19 19.02 -19 18 C-21.97 18.495 -21.97 18.495 -25 19 C-25 18.34 -25 17.68 -25 17 C-35.89 17 -46.78 17 -58 17 C-58 16.67 -58 16.34 -58 16 C-56.35970825 15.97812622 -56.35970825 15.97812622 -54.6862793 15.95581055 C-50.58017316 15.89728506 -46.47458477 15.82006197 -42.36889648 15.73754883 C-40.60107912 15.70455215 -38.83316279 15.67644396 -37.06518555 15.65356445 C-20.94513433 16.18101533 -20.94513433 16.18101533 -6.78588867 10.05151367 C-3.90674084 6.95332091 -1.79052043 3.82948629 0 0 Z " fill="#E3BD40" transform="translate(234,130)"/>
<path d="M0 0 C0 0.66 0 1.32 0 2 C-2.90600261 3.25664978 -4.79604584 4 -8 4 C-8 4.99 -8 5.98 -8 7 C-8.66 7 -9.32 7 -10 7 C-10 8.32 -10 9.64 -10 11 C-6.7 11 -3.4 11 0 11 C0 11.33 0 11.66 0 12 C-0.72445312 12.10957031 -1.44890625 12.21914062 -2.1953125 12.33203125 C-7.66165217 13.22851096 -12.12107743 14.24778727 -17 17 C-17.66 17 -18.32 17 -19 17 C-19 17.66 -19 18.32 -19 19 C-19.66 19 -20.32 19 -21 19 C-20.88754823 14.3997002 -20.74323648 10.34478091 -17.8125 6.625 C-12.42482994 1.59650794 -7.24149295 0 0 0 Z " fill="#EA7533" transform="translate(176,146)"/>
<path d="M0 0 C2 4 2 4 2 7 C4.76276177 6.47731534 7.3260876 5.89130413 10 5 C10 4.34 10 3.68 10 3 C18.49333362 2.04112808 26.89535063 1.84829187 35.4375 1.875 C36.67048828 1.87113281 37.90347656 1.86726562 39.17382812 1.86328125 C46.8326992 1.87137303 54.38002225 2.22699706 62 3 C62 3.33 62 3.66 62 4 C60.76548096 4.00410889 59.53096191 4.00821777 58.2590332 4.01245117 C53.61979049 4.03444432 48.98137184 4.08893892 44.3425293 4.15258789 C42.34586567 4.17559352 40.34908369 4.19012208 38.35229492 4.19555664 C24.08611459 4.24200301 11.75175646 4.93435931 0 14 C0 9.38 0 4.76 0 0 Z " fill="#792E7E" transform="translate(103,176)"/>
<path d="M0 0 C-0.81984375 0.33773437 -1.6396875 0.67546875 -2.484375 1.0234375 C-3.56203125 1.46945313 -4.6396875 1.91546875 -5.75 2.375 C-6.81734375 2.81585938 -7.8846875 3.25671875 -8.984375 3.7109375 C-11.37555926 4.73307585 -13.69383183 5.80213595 -16 7 C-16 7.66 -16 8.32 -16 9 C-16.99 9 -17.98 9 -19 9 C-19.433125 10.2065625 -19.433125 10.2065625 -19.875 11.4375 C-21 14 -21 14 -23 15 C-24 11.125 -24 11.125 -24 10 C-26.97 10.66 -29.94 11.32 -33 12 C-32.67 11.01 -32.34 10.02 -32 9 C-31.34 9 -30.68 9 -30 9 C-30 8.01 -30 7.02 -30 6 C-8.08101266 -2.97721519 -8.08101266 -2.97721519 0 0 Z " fill="#5A2C6A" transform="translate(152,133)"/>
<path d="M0 0 C-3.30359178 4.24585335 -5.71386866 7.33864444 -11 9 C-11.33 9.66 -11.66 10.32 -12 11 C-11.34 11.33 -10.68 11.66 -10 12 C-10.33 12.66 -10.66 13.32 -11 14 C-9.66195312 13.83951172 -9.66195312 13.83951172 -8.296875 13.67578125 C-7.12640625 13.55589844 -5.9559375 13.43601563 -4.75 13.3125 C-3.58984375 13.18488281 -2.4296875 13.05726563 -1.234375 12.92578125 C2 13 2 13 6 16 C-1.59 16 -9.18 16 -17 16 C-15.6122449 6.28571429 -15.6122449 6.28571429 -11 2.25 C-7.30246684 -0.06095822 -4.25712958 -0.09460288 0 0 Z " fill="#F03924" transform="translate(150,211)"/>
<path d="M0 0 C0.82054871 0.00007553 1.64109741 0.00015106 2.48651123 0.00022888 C3.36269104 0.00539017 4.23887085 0.01055145 5.14160156 0.01586914 C6.49816864 0.01799156 6.49816864 0.01799156 7.88214111 0.02015686 C10.76553683 0.02574628 13.64885439 0.03829686 16.53222656 0.05102539 C18.48925669 0.05604176 20.44628804 0.06060443 22.40332031 0.06469727 C27.19631909 0.07571226 31.98925958 0.09296965 36.78222656 0.11352539 C36.78222656 0.77352539 36.78222656 1.43352539 36.78222656 2.11352539 C34.94446655 2.13539917 34.94446655 2.13539917 33.06958008 2.15771484 C28.49019317 2.21602837 23.91128108 2.29325758 19.33227539 2.37597656 C17.3567683 2.40907119 15.38117018 2.43715043 13.40551758 2.45996094 C10.55283085 2.49379295 7.70096691 2.54612109 4.84863281 2.60180664 C3.54026207 2.61139153 3.54026207 2.61139153 2.20545959 2.62117004 C-4.99521747 2.79081148 -11.50512156 3.8626015 -17.15527344 8.55102539 C-20.77047268 13.04263657 -21.55243512 16.34725994 -22.21777344 22.11352539 C-22.87777344 21.78352539 -23.53777344 21.45352539 -24.21777344 21.11352539 C-24.0768228 19.48809459 -23.92985257 17.86318488 -23.78027344 16.23852539 C-23.6990625 15.33360352 -23.61785156 14.42868164 -23.53417969 13.49633789 C-23.21777344 11.11352539 -23.21777344 11.11352539 -22.21777344 9.11352539 C-21.55777344 9.11352539 -20.89777344 9.11352539 -20.21777344 9.11352539 C-20.21777344 8.45352539 -20.21777344 7.79352539 -20.21777344 7.11352539 C-18.30365787 6.12938106 -16.38637674 5.1513919 -14.46777344 4.17602539 C-13.40042969 3.63075195 -12.33308594 3.08547852 -11.23339844 2.52368164 C-7.36741767 0.71588493 -4.2523442 -0.01312452 0 0 Z " fill="#342115" transform="translate(177.2177734375,143.886474609375)"/>
<path d="M0 0 C0.66 1.32 1.32 2.64 2 4 C-1.51822249 8.43601966 -5.75390186 9.52033129 -11 11 C-11 11.33 -11 11.66 -11 12 C-20.75789081 12.9166099 -30.49154405 13.31328363 -40.28515625 13.60546875 C-46.25428461 13.80151034 -52.09020824 14.12663176 -58 15 C-49.5310802 9.35405346 -38.73181708 10.64974381 -28.97265625 10.609375 C-20.08239015 10.44215996 -9.53938057 9.93205576 -2.8125 3.3125 C-2.214375 2.549375 -1.61625 1.78625 -1 1 C-0.67 0.67 -0.34 0.34 0 0 Z " fill="#261039" transform="translate(204,120)"/>
<path d="M0 0 C19.14 0 38.28 0 58 0 C58 10.64951755 56.1304818 19.78861387 49 28 C47.69651433 29.03860623 46.36968102 30.05039394 45 31 C46.33333333 28.33333333 47.66666667 25.66666667 49 23 C49.66 23 50.32 23 51 23 C51 22.01 51 21.02 51 20 C50.34 19.67 49.68 19.34 49 19 C50.32 18.67 51.64 18.34 53 18 C54.92504453 12.09653012 55.35301142 7.46988576 56 1 C37.52 1 19.04 1 0 1 C0 0.67 0 0.34 0 0 Z " fill="#31090A" transform="translate(156,166)"/>
<path d="M0 0 C-2.62637999 3.69638666 -4.52740559 5.8818514 -9 7 C-9.66 6.814375 -10.32 6.62875 -11 6.4375 C-13.14322308 5.76316028 -13.14322308 5.76316028 -15.5625 7.125 C-18.15679174 8.86521095 -18.15679174 8.86521095 -19.5 11.6875 C-19.995 12.450625 -20.49 13.21375 -21 14 C-23.6875 14.3125 -23.6875 14.3125 -26 14 C-26 13.01 -26 12.02 -26 11 C-19.58397973 4.59688923 -9.55447738 -3.18482579 0 0 Z " fill="#BD6EA1" transform="translate(146,114)"/>
<path d="M0 0 C1.37466431 0.07069702 1.37466431 0.07069702 2.77709961 0.14282227 C4.26113281 0.21533203 4.26113281 0.21533203 5.77514648 0.28930664 C7.33652344 0.37341797 7.33652344 0.37341797 8.92944336 0.45922852 C10.49662109 0.53753906 10.49662109 0.53753906 12.09545898 0.61743164 C14.68622572 0.74756148 17.27665002 0.8825401 19.86694336 1.02172852 C19.86694336 2.67172852 19.86694336 4.32172852 19.86694336 6.02172852 C12.60694336 6.02172852 5.34694336 6.02172852 -2.13305664 6.02172852 C-2.46305664 4.37172852 -2.79305664 2.72172852 -3.13305664 1.02172852 C-2.13305664 0.02172852 -2.13305664 0.02172852 0 0 Z " fill="#EA6129" transform="translate(190.133056640625,157.978271484375)"/>
<path d="M0 0 C0.33 0 0.66 0 1 0 C0.4618629 5.69051363 -0.1400133 11.34865884 -1 17 C-0.34 17 0.32 17 1 17 C1 17.66 1 18.32 1 19 C1.64701874 18.9830307 2.29403748 18.9660614 2.96066284 18.94857788 C9.67582797 18.7744518 16.3912231 18.61449874 23.10693359 18.46289062 C25.61548523 18.40437834 28.12395439 18.34221393 30.63232422 18.27636719 C34.23129257 18.18251815 37.83035017 18.10167233 41.4296875 18.0234375 C42.55680145 17.99124115 43.68391541 17.9590448 44.84518433 17.9258728 C46.40657639 17.89561508 46.40657639 17.89561508 47.99951172 17.86474609 C48.91884491 17.84253998 49.8381781 17.82033386 50.78536987 17.79745483 C53 18 53 18 55 20 C35.86 20 16.72 20 -3 20 C-3 6.5 -3 6.5 0 0 Z " fill="#140B33" transform="translate(127,152)"/>
<path d="M0 0 C0.66 0 1.32 0 2 0 C2 3.63 2 7.26 2 11 C0.02 11 -1.96 11 -4 11 C-4.268125 11.639375 -4.53625 12.27875 -4.8125 12.9375 C-6 15 -6 15 -9 16 C-9 15.34 -9 14.68 -9 14 C-9.99 13.67 -10.98 13.34 -12 13 C-11.01 13 -10.02 13 -9 13 C-9 12.01 -9 11.02 -9 10 C-9.99 9.34 -10.98 8.68 -12 8 C-10.4221875 7.4121875 -10.4221875 7.4121875 -8.8125 6.8125 C-5.07208017 5.23758639 -2.7885458 2.94789127 0 0 Z " fill="#F0D42E" transform="translate(232,137)"/>
<path d="M0 0 C0.99 0.66 1.98 1.32 3 2 C4.98468892 1.54449763 6.96921128 1.07981154 8.92578125 0.515625 C11.64708844 -0.16085814 14.21136517 -0.13943174 17 0 C18.48700668 2.97401336 18.00619932 5.94818926 17.87890625 9.1953125 C17.85529526 9.90275604 17.83168427 10.61019958 17.80735779 11.33908081 C17.73071166 13.60125755 17.64669188 15.86309273 17.5625 18.125 C17.50928023 19.6575353 17.45653982 21.19008734 17.40429688 22.72265625 C17.27509533 26.48198761 17.13927963 30.24102908 17 34 C16.67 34 16.34 34 16 34 C16 23.77 16 13.54 16 3 C7.64676167 4.47450615 7.64676167 4.47450615 3 7 C0.25 7.125 0.25 7.125 -2 7 C-1.67 6.01 -1.34 5.02 -1 4 C-1.66 4 -2.32 4 -3 4 C-2.67 3.34 -2.34 2.68 -2 2 C-1.34 2.33 -0.68 2.66 0 3 C0 2.01 0 1.02 0 0 Z " fill="#0A1515" transform="translate(220,89)"/>
<path d="M0 0 C0.66 0 1.32 0 2 0 C1.8453125 1.02996094 1.690625 2.05992187 1.53125 3.12109375 C0.74638515 9.40968522 0.67824898 15.733646 0.5 22.0625 C0.19025947 32.06117452 -0.19056554 42.02845636 -1 52 C-1.33 52 -1.66 52 -2 52 C-2.21928258 46.52369596 -2.41565985 41.0471899 -2.59204102 35.56933594 C-2.65496023 33.71104679 -2.72383044 31.8529482 -2.79907227 29.99511719 C-3.21924382 19.5162078 -3.52966102 10.02718192 0 0 Z " fill="#210E33" transform="translate(103,154)"/>
<path d="M0 0 C0.33 0 0.66 0 1 0 C1.103125 1.051875 1.20625 2.10375 1.3125 3.1875 C1.98249287 6.90291502 2.96256419 8.89955421 5 12 C5 12.66 5 13.32 5 14 C2 15 2 15 -2 15 C-2.33 16.98 -2.66 18.96 -3 21 C-4.65 20.67 -6.3 20.34 -8 20 C-7.09409469 17.00354398 -6.22053461 14.35477307 -4.5625 11.6875 C-2.41196591 7.98858137 -1.25208708 4.07594305 0 0 Z " fill="#E35131" transform="translate(214,178)"/>
<path d="M0 0 C2.08836672 4.17673343 2.3695619 6.65211418 2.625 11.25 C2.69976562 12.51328125 2.77453125 13.7765625 2.8515625 15.078125 C2.90054688 16.04234375 2.94953125 17.0065625 3 18 C4.65 18 6.3 18 8 18 C8.33 15.69 8.66 13.38 9 11 C10.32 11 11.64 11 13 11 C13 10.34 13 9.68 13 9 C13.66 9 14.32 9 15 9 C12.88949897 17.18462594 12.88949897 17.18462594 9.75 20.0625 C7 21 7 21 0 21 C0 14.07 0 7.14 0 0 Z " fill="#6D9BBE" transform="translate(103,224)"/>
<path d="M0 0 C1.32 0.33 2.64 0.66 4 1 C-6.34897518 9.10630787 -17.55161385 14.19644834 -30.8125 14.0625 C-31.97394531 14.05347656 -33.13539063 14.04445312 -34.33203125 14.03515625 C-35.21246094 14.02355469 -36.09289062 14.01195312 -37 14 C-37 13.67 -37 13.34 -37 13 C-36.32195312 12.87882813 -35.64390625 12.75765625 -34.9453125 12.6328125 C-32.99404313 12.28147591 -31.04356705 11.92571532 -29.09375 11.56640625 C-27.13753861 11.20826149 -25.17936524 10.86053819 -23.21875 10.52734375 C-18.45136623 9.67294817 -15.11951305 8.63191112 -11 6 C-7.6875 5.3125 -7.6875 5.3125 -5 5 C-5 4.34 -5 3.68 -5 3 C-4.360625 2.87625 -3.72125 2.7525 -3.0625 2.625 C-2.381875 2.41875 -1.70125 2.2125 -1 2 C-0.67 1.34 -0.34 0.68 0 0 Z " fill="#E0AF50" transform="translate(213,213)"/>
<path d="M0 0 C2.475 0.495 2.475 0.495 5 1 C4.67 13.54 4.34 26.08 4 39 C3.34 39 2.68 39 2 39 C1.97494385 37.96069336 1.9498877 36.92138672 1.92407227 35.85058594 C1.82979074 31.98897297 1.72962092 28.12753117 1.62768555 24.26611328 C1.58441511 22.59590666 1.54273451 20.92565806 1.50268555 19.25537109 C1.44479149 16.85241045 1.3811526 14.44965959 1.31640625 12.046875 C1.29969376 11.30193787 1.28298126 10.55700073 1.26576233 9.78948975 C1.16938305 6.40490066 1.03929826 3.2399476 0 0 Z " fill="#10291A" transform="translate(210,105)"/>
<path d="M0 0 C1.32 0.66 2.64 1.32 4 2 C3.525625 2.515625 3.05125 3.03125 2.5625 3.5625 C0.74350186 6.0268972 0.74350186 6.0268972 0.5 9.5625 C0 13 0 13 -1.375 14.9375 C-3 16 -3 16 -6 16 C-6 16.66 -6 17.32 -6 18 C-11.64399358 20.44064587 -16.97751478 20.19289099 -23 20 C-23 19.67 -23 19.34 -23 19 C-22.13117188 18.84144531 -21.26234375 18.68289062 -20.3671875 18.51953125 C-11.02888233 16.79974366 -11.02888233 16.79974366 -4 11 C-2.39300451 7.40580504 -1.12283478 3.77140387 0 0 Z " fill="#230D37" transform="translate(183,173)"/>
<path d="M0 0 C0.33 0 0.66 0 1 0 C1.05793591 4.43744539 1.09357467 8.87479389 1.125 13.3125 C1.14175781 14.57513672 1.15851563 15.83777344 1.17578125 17.13867188 C1.18222656 18.34716797 1.18867188 19.55566406 1.1953125 20.80078125 C1.20578613 21.91622314 1.21625977 23.03166504 1.22705078 24.1809082 C1 27 1 27 -1 30 C-1.33 22.08 -1.66 14.16 -2 6 C-5.96 7.98 -5.96 7.98 -10 10 C-13.5 10.25 -13.5 10.25 -16 10 C-13.47732009 8.31821339 -11.18908177 7.09893258 -8.4375 5.875 C-7.65246094 5.52179688 -6.86742187 5.16859375 -6.05859375 4.8046875 C-4 4 -4 4 -2 4 C-1.34 2.68 -0.68 1.36 0 0 Z " fill="#D18A3E" transform="translate(234,147)"/>
<path d="M0 0 C0.66 0 1.32 0 2 0 C3.05868599 3.17605797 3.05125978 5.19360718 2.9140625 8.515625 C2.87023437 9.60230469 2.82640625 10.68898437 2.78125 11.80859375 C2.70390625 13.51208984 2.70390625 13.51208984 2.625 15.25 C2.58117187 16.37019531 2.53734375 17.49039063 2.4921875 18.64453125 C2.25776882 24.15988177 1.92827755 29.55620286 1 35 C0.01 35 -0.98 35 -2 35 C-1.84152588 33.98542725 -1.68305176 32.97085449 -1.51977539 31.92553711 C-1.04228545 28.31935545 -0.80079311 24.82458638 -0.68359375 21.19140625 C-0.64169922 19.95068359 -0.59980469 18.70996094 -0.55664062 17.43164062 C-0.51732422 16.15482422 -0.47800781 14.87800781 -0.4375 13.5625 C-0.39431641 12.25861328 -0.35113281 10.95472656 -0.30664062 9.61132812 C-0.20102476 6.40764684 -0.09891899 3.20389389 0 0 Z " fill="#09183D" transform="translate(124,196)"/>
<path d="M0 0 C0.99 0.33 1.98 0.66 3 1 C1.700625 2.3921875 1.700625 2.3921875 0.375 3.8125 C-5.69288077 10.91321154 -9.37616412 19.10811174 -12 28 C-12.66 28 -13.32 28 -14 28 C-14.33 25.36 -14.66 22.72 -15 20 C-13.68 19.67 -12.36 19.34 -11 19 C-11.0825 18.278125 -11.165 17.55625 -11.25 16.8125 C-10.92256852 13.12889581 -9.53906064 11.61373889 -7 9 C-6.34 9 -5.68 9 -5 9 C-4.731875 8.071875 -4.46375 7.14375 -4.1875 6.1875 C-3.08851629 3.23759634 -2.37581439 1.94384814 0 0 Z " fill="#25112F" transform="translate(118,124)"/>
<path d="M0 0 C0 0.66 0 1.32 0 2 C-0.99 2.66 -1.98 3.32 -3 4 C-2.01 4.33 -1.02 4.66 0 5 C0.33 5.66 0.66 6.32 1 7 C3.35599235 7.46751788 3.35599235 7.46751788 6.0625 7.625 C7.44115234 7.73714844 7.44115234 7.73714844 8.84765625 7.8515625 C9.55792969 7.90054688 10.26820313 7.94953125 11 8 C11 8.33 11 8.66 11 9 C3.92278069 9.12109311 -2.97195301 8.85373239 -10 8 C-10 6.68 -10 5.36 -10 4 C-9.34 4 -8.68 4 -8 4 C-8 3.01 -8 2.02 -8 1 C-4.93251126 -0.86240388 -3.40254489 -1.2151946 0 0 Z " fill="#F0812D" transform="translate(176,149)"/>
<path d="M0 0 C1.8125 1.3125 1.8125 1.3125 3 3 C3 3.99 3 4.98 3 6 C-2.94 6 -8.88 6 -15 6 C-10.5063168 1.5063168 -6.49419624 -0.87759409 0 0 Z " fill="#E33B27" transform="translate(173,158)"/>
<path d="M0 0 C-0.54606623 3.82246363 -2.02579418 5.58848176 -5 8 C-9.17376776 9.86487495 -11.62237326 10.1224684 -16 9 C-17.6662553 8.9629721 -19.33401319 8.95240038 -21 9 C-21.33 8.34 -21.66 7.68 -22 7 C-20.1128125 6.6596875 -20.1128125 6.6596875 -18.1875 6.3125 C-13.20190619 5.22833119 -8.85792742 3.24872417 -4.28515625 1.0234375 C-2 0 -2 0 0 0 Z " fill="#F3B52A" transform="translate(215,199)"/>
<path d="M0 0 C0.83213013 0.00424484 1.66426025 0.00848969 2.52160645 0.01286316 C5.15016593 0.02950568 7.77792667 0.06712899 10.40625 0.10546875 C12.20050967 0.12053431 13.9947815 0.13421942 15.7890625 0.14648438 C20.16176083 0.17936161 24.53387053 0.23104153 28.90625 0.29296875 C28.90625 0.62296875 28.90625 0.95296875 28.90625 1.29296875 C17.02625 1.29296875 5.14625 1.29296875 -7.09375 1.29296875 C-7.09375 4.59296875 -7.09375 7.89296875 -7.09375 11.29296875 C-7.42375 11.29296875 -7.75375 11.29296875 -8.09375 11.29296875 C-8.09375 8.65296875 -8.09375 6.01296875 -8.09375 3.29296875 C-9.33125 3.60234375 -10.56875 3.91171875 -11.84375 4.23046875 C-13.26041667 4.58463542 -14.67708333 4.93880208 -16.09375 5.29296875 C-16.84140625 5.47988281 -17.5890625 5.66679687 -18.359375 5.859375 C-18.93171875 6.00246094 -19.5040625 6.14554688 -20.09375 6.29296875 C-14.66390759 0.34362285 -7.57590516 -0.14850265 0 0 Z " fill="#4D3066" transform="translate(131.09375,191.70703125)"/>
<path d="M0 0 C6.65689282 -0.02529589 13.3137733 -0.04284396 19.97070312 -0.05493164 C22.23665836 -0.05996926 24.50261033 -0.06679952 26.76855469 -0.07543945 C30.02019047 -0.08752996 33.27178339 -0.09323392 36.5234375 -0.09765625 C38.05005508 -0.10539818 38.05005508 -0.10539818 39.60751343 -0.11329651 C41.01874985 -0.11340981 41.01874985 -0.11340981 42.45849609 -0.11352539 C43.70425919 -0.11685631 43.70425919 -0.11685631 44.97518921 -0.12025452 C47 0 47 0 49 1 C48.71848913 2.31471568 48.42446661 3.62675767 48.125 4.9375 C47.96257812 5.66839844 47.80015625 6.39929688 47.6328125 7.15234375 C47 9 47 9 45 10 C45.33 7.03 45.66 4.06 46 1 C30.82 1 15.64 1 0 1 C0 0.67 0 0.34 0 0 Z " fill="#270A39" transform="translate(160,109)"/>
<path d="M0 0 C0.77403168 0.00141495 1.54806335 0.0028299 2.34555054 0.00428772 C4.82155192 0.00989222 7.29746338 0.02244542 9.7734375 0.03515625 C11.45051953 0.04017067 13.12760297 0.04473368 14.8046875 0.04882812 C18.91930556 0.0598631 23.03385628 0.07713071 27.1484375 0.09765625 C27.1484375 0.42765625 27.1484375 0.75765625 27.1484375 1.09765625 C26.26696045 1.14776855 25.3854834 1.19788086 24.47729492 1.24951172 C21.1538564 1.44171372 17.83089322 1.64003535 14.50805664 1.84228516 C13.07981268 1.92800869 11.65142707 2.01140958 10.22290039 2.09228516 C1.74916145 2.57378137 -6.53420764 3.29602324 -14.8515625 5.09765625 C-14.1915625 4.43765625 -13.5315625 3.77765625 -12.8515625 3.09765625 C-11.8615625 3.09765625 -10.8715625 3.09765625 -9.8515625 3.09765625 C-9.8515625 2.43765625 -9.8515625 1.77765625 -9.8515625 1.09765625 C-6.73202122 -0.46211439 -3.42196866 -0.02338501 0 0 Z " fill="#190B2C" transform="translate(153.8515625,107.90234375)"/>
<path d="M0 0 C0.33 0 0.66 0 1 0 C0.35680783 12.64944595 -4.77633342 24.28499132 -13.375 33.5625 C-13.91125 34.036875 -14.4475 34.51125 -15 35 C-15 33.68 -15 32.36 -15 31 C-14.34 31 -13.68 31 -13 31 C-13 29.68 -13 28.36 -13 27 C-12.3915625 26.76796875 -11.783125 26.5359375 -11.15625 26.296875 C-3.95152455 21.9635981 -2.01836151 7.72389741 0 0 Z " fill="#E2CE60" transform="translate(232,178)"/>
<path d="M0 0 C1.41152344 -0.00193359 1.41152344 -0.00193359 2.8515625 -0.00390625 C4.33269531 0.00189453 4.33269531 0.00189453 5.84375 0.0078125 C6.80023438 0.00394531 7.75671875 0.00007812 8.7421875 -0.00390625 C15.00072755 0.00457416 21.13029472 0.38590481 27.34375 1.1328125 C27.34375 1.4628125 27.34375 1.7928125 27.34375 2.1328125 C26.0119873 2.17039673 26.0119873 2.17039673 24.65332031 2.20874023 C21.35078963 2.30403047 18.04842541 2.40325457 14.74609375 2.50512695 C13.31840612 2.54836568 11.89067046 2.59004835 10.46289062 2.63012695 C8.40740504 2.68809852 6.35215872 2.75171425 4.296875 2.81640625 C3.06098633 2.85306396 1.82509766 2.88972168 0.55175781 2.92749023 C-2.02812658 3.09261069 -4.19980106 3.3792512 -6.65625 4.1328125 C-6.65625 3.1428125 -6.65625 2.1528125 -6.65625 1.1328125 C-4.24049584 -0.07506458 -2.69679093 0.00358889 0 0 Z " fill="#CE7B46" transform="translate(156.65625,206.8671875)"/>
<path d="M0 0 C0.33 0 0.66 0 1 0 C0.55036936 4.67615869 -0.01337609 7.39116278 -3 11 C-3.70514846 13.14733927 -3.70514846 13.14733927 -4 15 C-4.99 15 -5.98 15 -7 15 C-7 15.66 -7 16.32 -7 17 C-8.90881434 18.03544174 -10.82739204 19.05290085 -12.75 20.0625 C-13.81734375 20.63097656 -14.8846875 21.19945312 -15.984375 21.78515625 C-19.02593537 23.01044806 -20.04893565 23.25348607 -23 22 C-22.2265625 21.67128906 -21.453125 21.34257812 -20.65625 21.00390625 C-11.79659343 16.95785022 -5.01044807 12.0672758 -1 2.9375 C-0.67 1.968125 -0.34 0.99875 0 0 Z " fill="#B73E3D" transform="translate(211,182)"/>
<path d="M0 0 C1.11939888 2.74761543 1.09370188 3.77401311 -0.0625 6.5625 C-3.00700499 10.26687724 -5.93555196 11.68215523 -10.61328125 12.40234375 C-13.07537962 12.65656324 -15.52908374 12.85838622 -18 13 C-17.67 12.01 -17.34 11.02 -17 10 C-16.01 10.33 -15.02 10.66 -14 11 C-13.67 10.34 -13.34 9.68 -13 9 C-10.68529088 8.27129528 -8.3494053 7.60760482 -6 7 C-5.01 6.67 -4.02 6.34 -3 6 C-3 5.34 -3 4.68 -3 4 C-2.34 4 -1.68 4 -1 4 C-0.67 2.68 -0.34 1.36 0 0 Z " fill="#803984" transform="translate(178,179)"/>
<path d="M0 0 C0.66 0 1.32 0 2 0 C2 0.66 2 1.32 2 2 C4.31 2 6.62 2 9 2 C9.33 1.34 9.66 0.68 10 0 C10 1.32 10 2.64 10 4 C12.64 4.33 15.28 4.66 18 5 C18 5.33 18 5.66 18 6 C10.41 6 2.82 6 -5 6 C-5 5.67 -5 5.34 -5 5 C-3.35 4.67 -1.7 4.34 0 4 C-1.65 3.67 -3.3 3.34 -5 3 C-5 2.67 -5 2.34 -5 2 C-3.35 2 -1.7 2 0 2 C0 1.34 0 0.68 0 0 Z " fill="#F6A931" transform="translate(198,152)"/>
<path d="M0 0 C1.32527172 3.6297251 0.66675274 5.62288221 -0.8125 9.125 C-1.16957031 9.99382812 -1.52664062 10.86265625 -1.89453125 11.7578125 C-3 14 -3 14 -5 16 C-5 15.34 -5 14.68 -5 14 C-6.093125 14.515625 -7.18625 15.03125 -8.3125 15.5625 C-12 17 -12 17 -15 16 C-14.49210938 15.74347656 -13.98421875 15.48695313 -13.4609375 15.22265625 C-6.86654733 11.5549898 -3.34084607 6.68169214 0 0 Z " fill="#FABD39" transform="translate(230,182)"/>
<path d="M0 0 C1.13695313 0.11601562 1.13695313 0.11601562 2.296875 0.234375 C1.91015625 0.70746094 1.5234375 1.18054688 1.125 1.66796875 C-2.25517607 5.96012302 -4.77051347 10.10046267 -6.84375 15.15625 C-7.7044912 17.23767872 -8.67456259 19.23138504 -9.703125 21.234375 C-9.67729488 13.60157598 -8.76440014 8.15689915 -4.46875 1.78125 C-2.703125 0.234375 -2.703125 0.234375 0 0 Z " fill="#CC7BB8" transform="translate(113.703125,142.765625)"/>
<path d="M0 0 C0.33 0 0.66 0 1 0 C1.03738281 0.69867188 1.07476562 1.39734375 1.11328125 2.1171875 C1.17902344 3.02726563 1.24476563 3.93734375 1.3125 4.875 C1.37050781 5.77992188 1.42851562 6.68484375 1.48828125 7.6171875 C1.7882039 10.36221601 1.7882039 10.36221601 5 12 C5.66 10.35 6.32 8.7 7 7 C8.32 7 9.64 7 11 7 C11 9 11 9 9.5 11.0625 C6.00350339 13.77228487 3.37692535 13.70820498 -1 14 C-1.02685938 11.85423363 -1.04633088 9.70837355 -1.0625 7.5625 C-1.07410156 6.36753906 -1.08570313 5.17257813 -1.09765625 3.94140625 C-1 1 -1 1 0 0 Z " fill="#539751" transform="translate(215,131)"/>
<path d="M0 0 C0.66 0 1.32 0 2 0 C2 0.66 2 1.32 2 2 C2.78375 1.979375 3.5675 1.95875 4.375 1.9375 C7 2 7 2 9 3 C10.32860925 3.35169068 11.66158328 3.68770276 13 4 C10.77518771 4.70146314 8.54492632 5.38565954 6.3125 6.0625 C5.07113281 6.44535156 3.82976562 6.82820312 2.55078125 7.22265625 C-0.8531786 7.96785758 -2.71559076 7.99851065 -6 7 C-5.195625 6.21625 -4.39125 5.4325 -3.5625 4.625 C-1.01309583 2.28017144 -1.01309583 2.28017144 0 0 Z " fill="#C069AF" transform="translate(134,128)"/>
<path d="M0 0 C1.02480469 0.00322266 2.04960938 0.00644531 3.10546875 0.00976562 C4.16894531 0.01814453 5.23242188 0.02652344 6.328125 0.03515625 C7.40707031 0.03966797 8.48601562 0.04417969 9.59765625 0.04882812 C12.25786883 0.06059898 14.91796865 0.07704226 17.578125 0.09765625 C17.578125 0.42765625 17.578125 0.75765625 17.578125 1.09765625 C16.46695313 1.1234375 15.35578125 1.14921875 14.2109375 1.17578125 C3.74315175 1.53125986 -4.91987507 2.41069002 -13.421875 9.09765625 C-13.091875 7.44765625 -12.761875 5.79765625 -12.421875 4.09765625 C-11.431875 4.09765625 -10.441875 4.09765625 -9.421875 4.09765625 C-9.421875 3.10765625 -9.421875 2.11765625 -9.421875 1.09765625 C-6.21405414 0.14389058 -3.34000104 -0.01855556 0 0 Z " fill="#C873B1" transform="translate(121.421875,190.90234375)"/>
<path d="M0 0 C0.33 0 0.66 0 1 0 C1 2.97 1 5.94 1 9 C0.21625 9.20625 -0.5675 9.4125 -1.375 9.625 C-4.30916286 10.80676612 -4.30916286 10.80676612 -5.3125 14.125 C-5.539375 15.07375 -5.76625 16.0225 -6 17 C-6.33 17 -6.66 17 -7 17 C-7 13.37 -7 9.74 -7 6 C-6.01 5.67 -5.02 5.34 -4 5 C-2.63755204 3.35704805 -1.30135125 1.69175663 0 0 Z " fill="#3B5297" transform="translate(111,199)"/>
<path d="M0 0 C0.33 0 0.66 0 1 0 C1 2.31 1 4.62 1 7 C0.01 7.33 -0.98 7.66 -2 8 C-3.22520264 11.00847418 -3.22520264 11.00847418 -4 14 C-5.5 12.875 -5.5 12.875 -7 11 C-7.1875 7.8125 -7.1875 7.8125 -7 5 C-6.34 5 -5.68 5 -5 5 C-5 4.34 -5 3.68 -5 3 C-3.35 2.67 -1.7 2.34 0 2 C0 1.34 0 0.68 0 0 Z " fill="#DE76B0" transform="translate(111,188)"/>
<path d="M0 0 C0 0.66 0 1.32 0 2 C-0.99580078 2.16435547 -0.99580078 2.16435547 -2.01171875 2.33203125 C-8.97812488 3.49554321 -8.97812488 3.49554321 -15 7 C-15 7.99 -15 8.98 -15 10 C-15.99 10 -16.98 10 -18 10 C-18.33 12.97 -18.66 15.94 -19 19 C-19.66 19 -20.32 19 -21 19 C-20.88754823 14.3997002 -20.74323648 10.34478091 -17.8125 6.625 C-12.42482994 1.59650794 -7.24149295 0 0 0 Z " fill="#C0714F" transform="translate(176,146)"/>
<path d="M0 0 C0 3 0 3 -1.875 4.9375 C-2.57625 5.618125 -3.2775 6.29875 -4 7 C-4.2475 7.70125 -4.495 8.4025 -4.75 9.125 C-6.60153643 11.90230465 -8.85068256 12.15896214 -12.0234375 12.828125 C-14.54119547 13.04706048 -15.98685523 12.50985858 -18 11 C-16.72125 10.7525 -15.4425 10.505 -14.125 10.25 C-10.79077795 9.49468027 -10.79077795 9.49468027 -8.5625 7 C-8.376875 6.34 -8.19125 5.68 -8 5 C-7.67 4.34 -7.34 3.68 -7 3 C-5.33499557 2.65846063 -3.66821323 2.32550502 -2 2 C-1.34 1.34 -0.68 0.68 0 0 Z " fill="#8B3789" transform="translate(202,117)"/>
<path d="M0 0 C-2.63113078 3.70307295 -4.50595051 5.92998822 -9 7 C-12.3125 6.625 -12.3125 6.625 -15 6 C-13.625 4.5 -13.625 4.5 -12 3 C-11.34 3 -10.68 3 -10 3 C-9.67 2.01 -9.34 1.02 -9 0 C-3.375 -1.125 -3.375 -1.125 0 0 Z " fill="#D365A6" transform="translate(146,114)"/>
<path d="M0 0 C0 11.88 0 23.76 0 36 C-0.33 36 -0.66 36 -1 36 C-1.33 25.11 -1.66 14.22 -2 3 C-4.64 3 -7.28 3 -10 3 C-6.70658091 -0.29341909 -4.72646815 0 0 0 Z " fill="#98AE66" transform="translate(235,92)"/>
<path d="M0 0 C-10.25151685 5.24496211 -21.70785922 5.33266536 -33 5 C-33 4.67 -33 4.34 -33 4 C-31.84213989 3.82609741 -31.84213989 3.82609741 -30.66088867 3.64868164 C-27.16933879 3.12270172 -23.67841902 2.59265008 -20.1875 2.0625 C-18.97255859 1.88009766 -17.75761719 1.69769531 -16.50585938 1.50976562 C-15.34248047 1.33251953 -14.17910156 1.15527344 -12.98046875 0.97265625 C-11.37014771 0.72914429 -11.37014771 0.72914429 -9.72729492 0.48071289 C-2.53556838 -0.78690053 -2.53556838 -0.78690053 0 0 Z " fill="#EB9149" transform="translate(207,203)"/>
<path d="M0 0 C0.66 0 1.32 0 2 0 C2.2954439 5.02254631 1.98514628 7.89542386 -1 12 C-2.35439668 9.29120665 -2.06501451 6.99066732 -2 4 C-2.55429688 4.22816406 -3.10859375 4.45632812 -3.6796875 4.69140625 C-4.40414062 4.97886719 -5.12859375 5.26632813 -5.875 5.5625 C-6.95394531 5.99755859 -6.95394531 5.99755859 -8.0546875 6.44140625 C-10 7 -10 7 -12 6 C-10.30820672 3.95780294 -9.36272334 3.08206694 -6.73828125 2.48828125 C-5.93777344 2.43027344 -5.13726562 2.37226563 -4.3125 2.3125 C-3.10013672 2.21388672 -3.10013672 2.21388672 -1.86328125 2.11328125 C-1.24839844 2.07589844 -0.63351563 2.03851563 0 2 C0 1.34 0 0.68 0 0 Z " fill="#6C2B82" transform="translate(180,173)"/>
<path d="M0 0 C1.98 0.66 3.96 1.32 6 2 C6 2.66 6 3.32 6 4 C3.75376301 4.69969682 1.50283586 5.38435043 -0.75 6.0625 C-2.00296875 6.44535156 -3.2559375 6.82820312 -4.546875 7.22265625 C-7.6738008 7.92656828 -9.09466046 8.16653785 -12 7 C-10.75264433 6.3490741 -9.50198168 5.70448331 -8.25 5.0625 C-7.55390625 4.70285156 -6.8578125 4.34320313 -6.140625 3.97265625 C-4.09775567 3.04441818 -2.18884624 2.46833422 0 2 C0 1.34 0 0.68 0 0 Z " fill="#DD3424" transform="translate(204,197)"/>
<path d="M0 0 C0 0.33 0 0.66 0 1 C-0.59167969 1.15855469 -1.18335938 1.31710938 -1.79296875 1.48046875 C-7.91380952 3.28776431 -11.61600655 5.42400983 -15.25 10.875 C-16.30540723 13.86532049 -16.63765585 16.85968403 -17 20 C-17.66 19.67 -18.32 19.34 -19 19 C-18.85904936 17.3745692 -18.71207913 15.74965949 -18.5625 14.125 C-18.48128906 13.22007812 -18.40007812 12.31515625 -18.31640625 11.3828125 C-18 9 -18 9 -17 7 C-16.34 7 -15.68 7 -15 7 C-15 6.34 -15 5.68 -15 5 C-5.77448747 -0.74031891 -5.77448747 -0.74031891 0 0 Z " fill="#2D100C" transform="translate(172,146)"/>
<path d="M0 0 C1.98 0 3.96 0 6 0 C6.50135637 6.14161557 5.48450993 9.10285091 2 14 C-0.75 15.9375 -0.75 15.9375 -3 17 C-2.67 15.68 -2.34 14.36 -2 13 C-1.34 13 -0.68 13 0 13 C0.20496094 12.37351562 0.40992188 11.74703125 0.62109375 11.1015625 C0.89050781 10.28429687 1.15992188 9.46703125 1.4375 8.625 C1.70433594 7.81289062 1.97117188 7.00078125 2.24609375 6.1640625 C3 4 3 4 4 2 C2.68 1.34 1.36 0.68 0 0 Z " fill="#703579" transform="translate(200,110)"/>
<path d="M0 0 C0.33 0 0.66 0 1 0 C0.25 6.625 0.25 6.625 -2 10 C-2.66 10 -3.32 10 -4 10 C-4.20625 10.639375 -4.4125 11.27875 -4.625 11.9375 C-6 14 -6 14 -9.125 14.75 C-10.548125 14.87375 -10.548125 14.87375 -12 15 C-12.33 14.34 -12.66 13.68 -13 13 C-12.31292969 12.64808594 -11.62585938 12.29617187 -10.91796875 11.93359375 C-4.71302293 8.70507201 -4.71302293 8.70507201 -0.875 3.125 C-0.58625 2.09375 -0.2975 1.0625 0 0 Z " fill="#0A213C" transform="translate(121,232)"/>
<path d="M0 0 C-3.75 3 -3.75 3 -6 3 C-6 3.66 -6 4.32 -6 5 C-6.99 5 -7.98 5 -9 5 C-9.433125 6.2065625 -9.433125 6.2065625 -9.875 7.4375 C-11 10 -11 10 -13 11 C-14.10844919 7.67465243 -13.84454356 5.37817425 -13 2 C-10.69 2 -8.38 2 -6 2 C-6 1.34 -6 0.68 -6 0 C-3.50907189 -1.24546405 -2.58919267 -0.7767578 0 0 Z " fill="#3E3069" transform="translate(142,137)"/>
<path d="M0 0 C0.33 0 0.66 0 1 0 C1.52273016 6.92617465 0.13665077 12.76866033 -3 19 C-3.99 19.66 -4.98 20.32 -6 21 C-6.55746314 16.54029485 -5.06279586 13.93339655 -3.0234375 10.13671875 C-1.45136647 6.85457045 -0.76080866 3.55044039 0 0 Z " fill="#587EA2" transform="translate(122,220)"/>
<path d="M0 0 C0 0.66 0 1.32 0 2 C0.66 2.33 1.32 2.66 2 3 C2.99 4.485 2.99 4.485 4 6 C2.35 6.33 0.7 6.66 -1 7 C-1.33 5.68 -1.66 4.36 -2 3 C-2.5775 3.309375 -3.155 3.61875 -3.75 3.9375 C-5.84294184 4.92583364 -7.74535275 5.5168613 -10 6 C-9.01 5.01 -8.02 4.02 -7 3 C-7.99 2.34 -8.98 1.68 -10 1 C-6.52674819 -0.1577506 -3.63932552 -0.06866652 0 0 Z " fill="#9C3B91" transform="translate(170,181)"/>
<path d="M0 0 C0.66 0.33 1.32 0.66 2 1 C1.690625 1.7425 1.38125 2.485 1.0625 3.25 C-0.40998964 8.44702225 -0.66949055 13.62487263 -1 19 C-1.99 18.34 -2.98 17.68 -4 17 C-3.91266027 14.91589342 -3.80447722 12.83265331 -3.6875 10.75 C-3.62949219 9.58984375 -3.57148437 8.4296875 -3.51171875 7.234375 C-2.98288197 3.89180362 -2.26227667 2.4502943 0 0 Z " fill="#4F316D" transform="translate(125,153)"/>
<path d="M0 0 C0.99 0.33 1.98 0.66 3 1 C-3.53820443 6.35303142 -9.72546487 6.86125017 -18 7 C-18 6.34 -18 5.68 -18 5 C-19.32 4.34 -20.64 3.68 -22 3 C-20.35 3 -18.7 3 -17 3 C-16.67 3.99 -16.34 4.98 -16 6 C-14.08063787 5.57448104 -12.16457126 5.13408062 -10.25 4.6875 C-8.64898437 4.32205078 -8.64898437 4.32205078 -7.015625 3.94921875 C-3.98079456 3.17977449 -3.98079456 3.17977449 -1.796875 1.33203125 C-0.90742188 0.67267578 -0.90742188 0.67267578 0 0 Z " fill="#170F22" transform="translate(198,197)"/>
<path d="M0 0 C0.33 0 0.66 0 1 0 C1 5.61 1 11.22 1 17 C0.67 17 0.34 17 0 17 C0 13.7 0 10.4 0 7 C-2.64 9.31 -5.28 11.62 -8 14 C-8.66 13.67 -9.32 13.34 -10 13 C-9.52949219 12.56429687 -9.05898437 12.12859375 -8.57421875 11.6796875 C-4.7848786 8.05510127 -2.04329447 4.92794549 0 0 Z " fill="#D7D85C" transform="translate(234,130)"/>
<path d="M0 0 C0.33 0.66 0.66 1.32 1 2 C-0.7263006 4.22576398 -2.45535755 6.44893913 -4.1953125 8.6640625 C-5.55607265 10.42539273 -6.85614236 12.23385223 -8.125 14.0625 C-10 16 -10 16 -12.75 16.3125 C-13.4925 16.209375 -14.235 16.10625 -15 16 C-12.96522814 13.88986622 -10.98891929 11.99183526 -8.625 10.25 C-5.13333014 7.25714012 -2.64251651 3.74129485 0 0 Z " fill="#2C2008" transform="translate(224,204)"/>
<path d="M0 0 C0.99 0 1.98 0 3 0 C2.75 3.375 2.75 3.375 2 7 C-0.0625 8.4375 -0.0625 8.4375 -2 9 C-2.66 7.35 -3.32 5.7 -4 4 C-3.01 3.67 -2.02 3.34 -1 3 C-0.67 2.01 -0.34 1.02 0 0 Z " fill="#F0D72A" transform="translate(222,196)"/>
<path d="M0 0 C0.33 0.99 0.66 1.98 1 3 C-1.42179243 7.28470968 -4.33658171 10.72220469 -8 14 C-8.66 14 -9.32 14 -10 14 C-9.67 13.01 -9.34 12.02 -9 11 C-8.34 11 -7.68 11 -7 11 C-7.33 10.01 -7.66 9.02 -8 8 C-7.01 8 -6.02 8 -5 8 C-5 7.01 -5 6.02 -5 5 C-2.5 2.3125 -2.5 2.3125 0 0 Z " fill="#739C26" transform="translate(233,129)"/>
<path d="M0 0 C4.95 0 9.9 0 15 0 C15 0.99 15 1.98 15 3 C16.32 3.66 17.64 4.32 19 5 C15.0186217 6.3271261 11.14954773 6.06915913 7 6 C7 5.67 7 5.34 7 5 C8.65 4.67 10.3 4.34 12 4 C12 3.34 12 2.68 12 2 C8.04 1.67 4.08 1.34 0 1 C0 0.67 0 0.34 0 0 Z " fill="#E25325" transform="translate(173,158)"/>
<path d="M0 0 C0.804375 0.185625 1.60875 0.37125 2.4375 0.5625 C3.283125 0.706875 4.12875 0.85125 5 1 C5.33 0.67 5.66 0.34 6 0 C8.01964199 -0.07244053 10.04167124 -0.08377188 12.0625 -0.0625 C13.71958984 -0.04896484 13.71958984 -0.04896484 15.41015625 -0.03515625 C16.26480469 -0.02355469 17.11945313 -0.01195312 18 0 C18 0.33 18 0.66 18 1 C16.91332031 1.16435547 16.91332031 1.16435547 15.8046875 1.33203125 C10.33834783 2.22851096 5.87892257 3.24778727 1 6 C0.34 6 -0.32 6 -1 6 C-0.67 4.02 -0.34 2.04 0 0 Z " fill="#F66B33" transform="translate(158,157)"/>
<path d="M0 0 C0.33 0 0.66 0 1 0 C1 5.94 1 11.88 1 18 C0.67 18 0.34 18 0 18 C-1.44624241 12.84776142 -2.42395327 8.40540418 -2 3 C-1.34 2.01 -0.68 1.02 0 0 Z " fill="#3A588F" transform="translate(123,206)"/>
<path d="M0 0 C2.08836672 4.17673343 2.3695619 6.65211418 2.625 11.25 C2.69976562 12.51328125 2.77453125 13.7765625 2.8515625 15.078125 C2.90054688 16.04234375 2.94953125 17.0065625 3 18 C2.01 18 1.02 18 0 18 C0 12.06 0 6.12 0 0 Z " fill="#618DB5" transform="translate(103,224)"/>
<path d="M0 0 C0 0.33 0 0.66 0 1 C-1.918125 1.309375 -1.918125 1.309375 -3.875 1.625 C-8.91799336 2.70392885 -12.67881752 5.01229277 -16.93359375 7.85546875 C-17.61550781 8.23316406 -18.29742187 8.61085937 -19 9 C-19.66 8.67 -20.32 8.34 -21 8 C-13.79107738 2.31156974 -9.2805345 -0.31459439 0 0 Z " fill="#CC71B7" transform="translate(124,182)"/>
<path d="M0 0 C1.5625 1.125 1.5625 1.125 3 3 C2.6875 6.1875 2.6875 6.1875 2 9 C0.68 9.33 -0.64 9.66 -2 10 C-2.625 7.625 -2.625 7.625 -3 5 C-2.34 4.34 -1.68 3.68 -1 3 C-0.67 2.01 -0.34 1.02 0 0 Z " fill="#F2CC23" transform="translate(217,200)"/>
<path d="M0 0 C0.33 0 0.66 0 1 0 C1 3.3 1 6.6 1 10 C0.01 10.33 -0.98 10.66 -2 11 C-2.33 11.99 -2.66 12.98 -3 14 C-3.66 14 -4.32 14 -5 14 C-3.46527032 9.27775484 -1.76054874 4.64144669 0 0 Z " fill="#26260C" transform="translate(230,190)"/>
<path d="M0 0 C1.32 0.99 2.64 1.98 4 3 C-1.28 3 -6.56 3 -12 3 C-12 2.34 -12 1.68 -12 1 C-7.93231851 0.0138954 -4.18075636 -0.30405501 0 0 Z " fill="#E45637" transform="translate(152,224)"/>
<path d="M0 0 C-0.92652701 1.17539996 -1.86663387 2.34010577 -2.8125 3.5 C-3.33457031 4.1496875 -3.85664063 4.799375 -4.39453125 5.46875 C-6 7 -6 7 -9 7 C-9 5.02 -9 3.04 -9 1 C-5.8035914 -0.06546953 -3.34252724 -0.07427838 0 0 Z " fill="#EA4C29" transform="translate(150,211)"/>
<path d="M0 0 C1.32 0.33 2.64 0.66 4 1 C2.42210402 2.15330947 0.8374518 3.29737927 -0.75 4.4375 C-1.63171875 5.07558594 -2.5134375 5.71367187 -3.421875 6.37109375 C-5.72699125 7.8275081 -7.34349572 8.55931821 -10 9 C-10.33 8.01 -10.66 7.02 -11 6 C-9.02 5.67 -7.04 5.34 -5 5 C-5 4.34 -5 3.68 -5 3 C-4.360625 2.87625 -3.72125 2.7525 -3.0625 2.625 C-2.381875 2.41875 -1.70125 2.2125 -1 2 C-0.67 1.34 -0.34 0.68 0 0 Z " fill="#DCBB5A" transform="translate(213,213)"/>
<path d="M0 0 C0.33 0 0.66 0 1 0 C0.4618629 5.69051363 -0.1400133 11.34865884 -1 17 C-0.34 17.33 0.32 17.66 1 18 C0.01 18 -0.98 18 -2 18 C-3.18933594 11.00727785 -2.99415978 6.46738512 0 0 Z " fill="#19133A" transform="translate(127,152)"/>
<path d="M0 0 C-0.33 1.32 -0.66 2.64 -1 4 C-2.98 4 -4.96 4 -7 4 C-7 4.66 -7 5.32 -7 6 C-8.98 6 -10.96 6 -13 6 C-10.87838666 3.87838666 -9.2266841 3.07013751 -6.5 1.875 C-5.7059375 1.52179688 -4.911875 1.16859375 -4.09375 0.8046875 C-2 0 -2 0 0 0 Z " fill="#FCB03F" transform="translate(215,199)"/>
<path d="M0 0 C-0.99 0.495 -0.99 0.495 -2 1 C-2 1.66 -2 2.32 -2 3 C-2.66 3 -3.32 3 -4 3 C-4.33 3.66 -4.66 4.32 -5 5 C-5.66 4.67 -6.32 4.34 -7 4 C-7.66 5.32 -8.32 6.64 -9 8 C-10 5 -10 5 -9 2 C-5.99208089 -0.04108797 -3.57804656 -0.19878036 0 0 Z " fill="#562970" transform="translate(120,147)"/>
<path d="M0 0 C2 2 2 2 2 5 C2.66 5 3.32 5 4 5 C3.34 6.32 2.68 7.64 2 9 C1.34 9 0.68 9 0 9 C-2 6 -2 6 -1.6875 3.375 C-1 1 -1 1 0 0 Z " fill="#98B93F" transform="translate(220,103)"/>
<path d="M0 0 C1.7290774 -0.02725341 3.45828176 -0.04650987 5.1875 -0.0625 C6.15042969 -0.07410156 7.11335937 -0.08570312 8.10546875 -0.09765625 C10.85576513 -0.00486622 13.32479591 0.37888315 16 1 C15.34 2.32 14.68 3.64 14 5 C13.34 4.34 12.68 3.68 12 3 C8.64103108 2.02766689 6.32221382 1.89259539 3 3 C3 2.34 3 1.68 3 1 C2.01 0.67 1.02 0.34 0 0 Z " fill="#813782" transform="translate(189,110)"/>
<path d="M0 0 C-2.64738916 1.4606285 -3.89448334 2 -7 2 C-7 2.66 -7 3.32 -7 4 C-11.29 4 -15.58 4 -20 4 C-20 3.67 -20 3.34 -20 3 C-19.24074219 2.86722656 -18.48148438 2.73445312 -17.69921875 2.59765625 C-16.70535156 2.42105469 -15.71148437 2.24445313 -14.6875 2.0625 C-13.70136719 1.88847656 -12.71523437 1.71445313 -11.69921875 1.53515625 C-3.55746791 -0.07905484 -3.55746791 -0.07905484 0 0 Z " fill="#E19F4C" transform="translate(196,223)"/>
<path d="M0 0 C2.87913993 2.87913993 3.72780733 6.18342198 5 10 C4.01 10.33 3.02 10.66 2 11 C-1.03333922 7.96666078 -0.6646334 5.2256192 -1 1 C-0.67 0.67 -0.34 0.34 0 0 Z " fill="#F04E29" transform="translate(214,182)"/>
<path d="M0 0 C0 0.66 0 1.32 0 2 C-0.66 2 -1.32 2 -2 2 C-2.226875 2.598125 -2.45375 3.19625 -2.6875 3.8125 C-4.3611297 6.60188284 -6.08817726 7.6168842 -9 9 C-9.66 8.67 -10.32 8.34 -11 8 C-9.54712339 6.66072279 -8.08752741 5.32873153 -6.625 4 C-5.81289062 3.2575 -5.00078125 2.515 -4.1640625 1.75 C-2 0 -2 0 0 0 Z " fill="#682F71" transform="translate(122,140)"/>
<path d="M0 0 C1.32 0 2.64 0 4 0 C4 2 4 2 2.5 4.0625 C-0.99649661 6.77228487 -3.62307465 6.70820498 -8 7 C-7.67 6.34 -7.34 5.68 -7 5 C-5.35 5 -3.7 5 -2 5 C-1.34 3.35 -0.68 1.7 0 0 Z " fill="#559331" transform="translate(222,138)"/>
<path d="M0 0 C0.66 0 1.32 0 2 0 C2 0.66 2 1.32 2 2 C3.65 2 5.3 2 7 2 C7.33 2.66 7.66 3.32 8 4 C0.57142857 6.42857143 0.57142857 6.42857143 -3 5 C-1.625 2.5 -1.625 2.5 0 0 Z " fill="#CE65A6" transform="translate(134,128)"/>
<path d="M0 0 C0.66 0.33 1.32 0.66 2 1 C2 1.66 2 2.32 2 3 C2.99 3.33 3.98 3.66 5 4 C4.67 4.99 4.34 5.98 4 7 C2.02 7 0.04 7 -2 7 C-1.67 6.01 -1.34 5.02 -1 4 C-1.66 4 -2.32 4 -3 4 C-2.67 3.34 -2.34 2.68 -2 2 C-1.34 2.33 -0.68 2.66 0 3 C0 2.01 0 1.02 0 0 Z " fill="#101B20" transform="translate(220,89)"/>
<path d="M0 0 C0.99 0.33 1.98 0.66 3 1 C2.58427734 1.77923828 2.58427734 1.77923828 2.16015625 2.57421875 C0.19266733 6.36216005 -1.46337389 9.70699113 -2 14 C-2.66 14 -3.32 14 -4 14 C-3.8864371 12.35333797 -3.75882619 10.70763918 -3.625 9.0625 C-3.55539063 8.14597656 -3.48578125 7.22945312 -3.4140625 6.28515625 C-3.27742187 5.53105469 -3.14078125 4.77695313 -3 4 C-2.34 3.67 -1.68 3.34 -1 3 C-0.67 2.01 -0.34 1.02 0 0 Z " fill="#360713" transform="translate(133,214)"/>
<path d="M0 0 C5.28 0 10.56 0 16 0 C16 0.33 16 0.66 16 1 C10.39 1.66 4.78 2.32 -1 3 C-0.67 2.01 -0.34 1.02 0 0 Z " fill="#2E0A10" transform="translate(144,206)"/>
<path d="M0 0 C1.37095624 3.69037278 0.60010967 5.70883835 -0.9375 9.25 C-1.31777344 10.14203125 -1.69804687 11.0340625 -2.08984375 11.953125 C-2.39019531 12.62859375 -2.69054687 13.3040625 -3 14 C-3.33 14 -3.66 14 -4 14 C-3.53328373 8.58609132 -2.75702189 4.79482068 0 0 Z " fill="#F5CE42" transform="translate(230,182)"/>
<path d="M0 0 C0.99 0.33 1.98 0.66 3 1 C2.54554036 2.41791408 2.08625056 3.83428046 1.625 5.25 C1.36976562 6.03890625 1.11453125 6.8278125 0.8515625 7.640625 C0.04826333 9.86627958 -0.89711662 11.90931672 -2 14 C-1.85923685 12.0412957 -1.7122324 10.08303907 -1.5625 8.125 C-1.48128906 7.03445312 -1.40007812 5.94390625 -1.31640625 4.8203125 C-1 2 -1 2 0 0 Z " fill="#AB76AE" transform="translate(106,150)"/>
<path d="M0 0 C2.31 0 4.62 0 7 0 C7 0.99 7 1.98 7 3 C5.35 2.67 3.7 2.34 2 2 C2.33 3.98 2.66 5.96 3 8 C2.01 8 1.02 8 0 8 C0 5.36 0 2.72 0 0 Z " fill="#EEBA25" transform="translate(208,148)"/>
<path d="M0 0 C1.32 0.33 2.64 0.66 4 1 C3.67 2.98 3.34 4.96 3 7 C1.35 6.67 -0.3 6.34 -2 6 C-1.34 4.02 -0.68 2.04 0 0 Z " fill="#EC3D2C" transform="translate(208,192)"/>
<path d="M0 0 C0 0.66 0 1.32 0 2 C-3.63 2.66 -7.26 3.32 -11 4 C-7.39987093 0.15158617 -5.25169925 -1.6298377 0 0 Z " fill="#C15542" transform="translate(150,209)"/>
<path d="M0 0 C0.99 0 1.98 0 3 0 C3.33 3.3 3.66 6.6 4 10 C3.34 10 2.68 10 2 10 C1.87625 9.030625 1.7525 8.06125 1.625 7.0625 C1.41875 6.051875 1.2125 5.04125 1 4 C0.34 3.67 -0.32 3.34 -1 3 C-0.67 2.01 -0.34 1.02 0 0 Z " fill="#2E428B" transform="translate(120,196)"/>
<path d="M0 0 C0 2.64 0 5.28 0 8 C-0.66 7.34 -1.32 6.68 -2 6 C-3.94603274 5.40929986 -3.94603274 5.40929986 -6 5 C-6.99 4.67 -7.98 4.34 -9 4 C-7.68872739 3.3309224 -6.3759455 2.66480194 -5.0625 2 C-4.33160156 1.62875 -3.60070312 1.2575 -2.84765625 0.875 C-1 0 -1 0 0 0 Z " fill="#E98728" transform="translate(233,152)"/>
<path d="M0 0 C0.66 0 1.32 0 2 0 C1.34 2.31 0.68 4.62 0 7 C-1.32 7 -2.64 7 -4 7 C-4 5.35 -4 3.7 -4 2 C-2.68 2 -1.36 2 0 2 C0 1.34 0 0.68 0 0 Z " fill="#5990BC" transform="translate(116,233)"/>
<path d="M0 0 C0.66 0 1.32 0 2 0 C2.2954439 5.02254631 1.98514628 7.89542386 -1 12 C-2.3609623 9.2780754 -1.70366248 7.8168043 -1.0625 4.875 C-0.86785156 3.96492187 -0.67320312 3.05484375 -0.47265625 2.1171875 C-0.31667969 1.41851562 -0.16070312 0.71984375 0 0 Z " fill="#723C7F" transform="translate(180,173)"/>
<path d="M0 0 C0.33 0.66 0.66 1.32 1 2 C-1.52956528 5.0916909 -4.22454612 5.90931332 -8 7 C-4.55384615 1.21538462 -4.55384615 1.21538462 -1.75 0.125 C-1.1725 0.08375 -0.595 0.0425 0 0 Z " fill="#FCC838" transform="translate(232,147)"/>
<path d="M0 0 C1.37095624 3.69037278 0.60010967 5.70883835 -0.9375 9.25 C-1.31777344 10.14203125 -1.69804688 11.0340625 -2.08984375 11.953125 C-2.39019531 12.62859375 -2.69054687 13.3040625 -3 14 C-3.66 13.34 -4.32 12.68 -5 12 C-4.35522931 10.37457807 -3.70914857 8.74967576 -3.0625 7.125 C-2.52302734 5.76761719 -2.52302734 5.76761719 -1.97265625 4.3828125 C-1 2 -1 2 0 0 Z " fill="#B979A7" transform="translate(112,135)"/>
<path d="M0 0 C-0.99 1.32 -1.98 2.64 -3 4 C-4.875 3.6875 -4.875 3.6875 -7 3 C-7.66 2.01 -8.32 1.02 -9 0 C-3.375 -1.125 -3.375 -1.125 0 0 Z " fill="#C563A1" transform="translate(146,114)"/>
<path d="M0 0 C0.98120464 3.05263664 0.98120464 4.94736336 0 8 C1.65 8.33 3.3 8.66 5 9 C5 9.33 5 9.66 5 10 C2.69 10 0.38 10 -2 10 C-1.54177532 6.53058454 -1.10868317 3.32604951 0 0 Z " fill="#DA3539" transform="translate(135,217)"/>
<path d="M0 0 C2.97 0.33 5.94 0.66 9 1 C8.67 1.66 8.34 2.32 8 3 C5.35139573 3.59355614 2.70802678 3.74209269 0 4 C0 2.68 0 1.36 0 0 Z " fill="#F1B42D" transform="translate(200,216)"/>
<path d="M0 0 C0.66 0.33 1.32 0.66 2 1 C1.4685789 5.51707932 -0.29015683 8.38687577 -3 12 C-3.99 12.495 -3.99 12.495 -5 13 C-3.87548273 10.0280615 -2.77706209 7.66559313 -1 5 C-0.61500109 3.34450469 -0.27206865 1.6777567 0 0 Z " fill="#D57114" transform="translate(229,178)"/>
<path d="M0 0 C2 4 2 4 2 7 C2.66 7.66 3.32 8.32 4 9 C3.34 9.66 2.68 10.32 2 11 C1.67 11.99 1.34 12.98 1 14 C0.67 14 0.34 14 0 14 C0 9.38 0 4.76 0 0 Z " fill="#74357A" transform="translate(103,176)"/>
<path d="M0 0 C2.46226454 2.46226454 2.69375228 3.5547132 3 7 C2.0625 10.8125 2.0625 10.8125 1 14 C0.67 14 0.34 14 0 14 C0 9.38 0 4.76 0 0 Z " fill="#5F3C78" transform="translate(103,162)"/>
<path d="M0 0 C-0.66 0 -1.32 0 -2 0 C-2.33 1.65 -2.66 3.3 -3 5 C-3.99 4.67 -4.98 4.34 -6 4 C-6.6875 1.9375 -6.6875 1.9375 -7 0 C-3.86650268 -1.04449911 -3.01031744 -0.93423645 0 0 Z " fill="#F26F21" transform="translate(220,160)"/>
<path d="M0 0 C0.66 0.66 1.32 1.32 2 2 C1.34 2.66 0.68 3.32 0 4 C0.66 4.66 1.32 5.32 2 6 C0.35 6.66 -1.3 7.32 -3 8 C-3 4 -3 4 -2 2 C-1.34 2 -0.68 2 0 2 C0 1.34 0 0.68 0 0 Z " fill="#E54521" transform="translate(214,191)"/>
<path d="M0 0 C0.8971875 0.5259375 0.8971875 0.5259375 1.8125 1.0625 C0.52461992 1.59262738 -0.76796678 2.1113329 -2.0625 2.625 C-3.14144531 3.06005859 -3.14144531 3.06005859 -4.2421875 3.50390625 C-6.1875 4.0625 -6.1875 4.0625 -8.1875 3.0625 C-5.67391791 0.30952914 -3.81682031 -1.63578013 0 0 Z " fill="#4B2D74" transform="translate(127.1875,140.9375)"/>
<path d="M0 0 C2.475 0.495 2.475 0.495 5 1 C5 1.99 5 2.98 5 4 C3.35 4.33 1.7 4.66 0 5 C0 3.35 0 1.7 0 0 Z " fill="#51A147" transform="translate(222,133)"/>
<path d="M0 0 C0 0.66 0 1.32 0 2 C-0.66 2 -1.32 2 -2 2 C-2.28875 3.134375 -2.5775 4.26875 -2.875 5.4375 C-3.24625 6.613125 -3.6175 7.78875 -4 9 C-4.99 9.495 -4.99 9.495 -6 10 C-5.38909774 3.52443609 -5.38909774 3.52443609 -3.5625 1.0625 C-2 0 -2 0 0 0 Z " fill="#E93931" transform="translate(141,213)"/>
<path d="M0 0 C-1.1875 2 -1.1875 2 -3 4 C-5.6875 4.25 -5.6875 4.25 -8 4 C-7.34 3.67 -6.68 3.34 -6 3 C-6 2.01 -6 1.02 -6 0 C-3 -1 -3 -1 0 0 Z " fill="#F27D24" transform="translate(174,150)"/>
<path d="M0 0 C0.99 0 1.98 0 3 0 C2.38722388 2.96175123 1.74627478 4.38058783 0 7 C-0.66 7 -1.32 7 -2 7 C-1.125 2.25 -1.125 2.25 0 0 Z " fill="#131C17" transform="translate(217,97)"/>
<path d="M0 0 C3.63 0 7.26 0 11 0 C7.09567131 1.95216435 4.27786748 2.50639991 0 3 C0 2.01 0 1.02 0 0 Z " fill="#0D1708" transform="translate(223,91)"/>
<path d="M0 0 C0.66 0.33 1.32 0.66 2 1 C2 1.66 2 2.32 2 3 C-1.3 3.66 -4.6 4.32 -8 5 C-2.85714286 1.14285714 -2.85714286 1.14285714 0 0 Z " fill="#D63E15" transform="translate(208,198)"/>
<path d="M0 0 C-5.75 3.875 -5.75 3.875 -8 5 C-7.67 3.35 -7.34 1.7 -7 0 C-3.86650268 -1.04449911 -3.01031744 -0.93423645 0 0 Z " fill="#B578B8" transform="translate(116,195)"/>
<path d="M0 0 C1.32 0.33 2.64 0.66 4 1 C1.64031256 3.09749995 0.45383006 3.96905704 -2.75 4.1875 C-3.86375 4.0946875 -3.86375 4.0946875 -5 4 C-4.67 3.01 -4.34 2.02 -4 1 C-3.01 1.33 -2.02 1.66 -1 2 C-0.67 1.34 -0.34 0.68 0 0 Z " fill="#94428D" transform="translate(165,188)"/>
<path d="M0 0 C0.33 0 0.66 0 1 0 C1.28571429 8.57142857 1.28571429 8.57142857 -1 12 C-2.36884358 7.48281619 -1.47075246 4.41225737 0 0 Z " fill="#5073A1" transform="translate(122,220)"/>
<path d="M0 0 C-1.26239712 0.86658615 -2.53527501 1.71792059 -3.8125 2.5625 C-4.87404297 3.27599609 -4.87404297 3.27599609 -5.95703125 4.00390625 C-8 5 -8 5 -11 4 C-9.73760288 3.13341385 -8.46472499 2.28207941 -7.1875 1.4375 C-6.47980469 0.96183594 -5.77210938 0.48617187 -5.04296875 -0.00390625 C-3 -1 -3 -1 0 0 Z " fill="#3B0812" transform="translate(201,198)"/>
<path d="M0 0 C0.33 0.99 0.66 1.98 1 3 C0.34 3 -0.32 3 -1 3 C-1.12375 3.639375 -1.2475 4.27875 -1.375 4.9375 C-1.58125 5.618125 -1.7875 6.29875 -2 7 C-2.99 7.495 -2.99 7.495 -4 8 C-3.50168276 4.31245243 -2.89932357 2.39509338 0 0 Z " fill="#1B1120" transform="translate(206,186)"/>
<path d="M0 0 C-1.32 0.33 -2.64 0.66 -4 1 C-4 1.99 -4 2.98 -4 4 C-5.32 4.33 -6.64 4.66 -8 5 C-7.1875 2.5625 -7.1875 2.5625 -6 0 C-3 -1 -3 -1 0 0 Z " fill="#F37B35" transform="translate(172,149)"/>
<path d="M0 0 C3.3 0 6.6 0 10 0 C10 0.33 10 0.66 10 1 C6.7 1.66 3.4 2.32 0 3 C0 2.01 0 1.02 0 0 Z " fill="#DF6840" transform="translate(150,208)"/>
</svg>
